<?xml version="1.0" standalone="no"?>
<!DOCTYPE svg PUBLIC "-//W3C//DTD SVG 1.1//EN" "http://www.w3.org/Graphics/SVG/1.1/DTD/svg11.dtd" >
<svg xmlns="http://www.w3.org/2000/svg" width="100%" height="100%">
<metadata>
Created by FontXChange 20110222 at Fri Mar  9 14:40:10 2012
 By Karl Podger
Copyright (c) Saturday London Limited, 2009. All rights reserved.
</metadata>
<defs>
<font id="Industria-Med" horiz-adv-x="808" >
  <font-face 
    font-family="Industria"
    font-weight="500"
    font-stretch="normal"
    units-per-em="1000"
    panose-1="2 0 6 3 0 0 0 0 0 0"
    ascent="800"
    descent="-200"
    x-height="472"
    cap-height="720"
    bbox="-108 -254.798 1250 945"
    underline-thickness="20"
    underline-position="-133"
    stemh=" 18 "
    stemv=" 83 "
    unicode-range="U+0020-FB02"
  />
    <missing-glyph />
    <glyph glyph-name="space" unicode=" " horiz-adv-x="210" 
 />
    <glyph glyph-name="NUL" horiz-adv-x="500" 
 />
    <glyph glyph-name="scaron" unicode="&#x161;" horiz-adv-x="382" 
d="M182 -4c-97 0 -160 54 -160 119c0 30 20 45 40 45c23 0 38 -15 43 -40c0 0 -15 -15 -15 -40c0 -45 35 -76 92 -76c67 0 108 46 108 101s-20 85 -90 100c-25 5 -56 11 -83 20c-50 17 -85 63 -85 122c0 82 74 136 161 136c82 0 157 -38 157 -103c0 -30 -20 -45 -40 -45
s-36 11 -41 31c0 0 11 14 11 34c0 40 -30 75 -95 75c-48 0 -94 -29 -94 -93c0 -55 35 -73 77 -83c29 -7 68 -15 93 -21c60 -14 108 -65 108 -132c0 -104 -89 -150 -187 -150z" />
    <glyph glyph-name="CR" horiz-adv-x="210" 
 />
    <glyph glyph-name="brokenbar" unicode="&#xa6;" horiz-adv-x="243" 
d="M125 389h-10v395h10v-395zM125 -136h-10v395h10v-395z" />
    <glyph glyph-name="minus" unicode="&#x2212;" horiz-adv-x="700" 
d="M575 256h-450v10h450v-10z" />
    <glyph glyph-name="multiply" unicode="&#xd7;" horiz-adv-x="700" 
d="M350 255l-175 -180l-10 10l177 180l-177 180l10 10l175 -180l175 180l10 -10l-177 -180l177 -180l-10 -10z" />
    <glyph glyph-name="exclam" unicode="!" horiz-adv-x="300" 
d="M214 55c0 -35 -24 -57 -59 -57s-60 24 -60 59s25 61 60 61s59 -28 59 -63zM230 710l-74 -520h-2l-74 520s25 8 75 8s75 -8 75 -8z" />
    <glyph glyph-name="quotedbl" unicode="&#x22;" horiz-adv-x="335" 
d="M150 710l-59 -285h-2l-59 285s20 8 60 8s60 -8 60 -8zM300 710l-59 -285h-2l-59 285s20 8 60 8s60 -8 60 -8z" />
    <glyph glyph-name="dollar" unicode="$" horiz-adv-x="482" 
d="M270 -147l1 360l-58 16l1 -376h-11v142c-96 9 -161 53 -161 120c0 28 23 52 50 52c23 0 41 -15 46 -35c-4 -11 -6 -20 -6 -34c0 -48 18 -84 71 -95v229l-44 15c-59 22 -106 68 -106 133c0 85 67 137 150 150v118h11l-1 -331l58 -17l-1 348h11v-118
c80 -11 144 -52 144 -117c0 -28 -21 -52 -49 -52c-22 0 -39 15 -44 35c4 11 6 20 6 34c0 47 -18 80 -57 92v-225l42 -13c71 -22 115 -71 115 -139c0 -76 -65 -135 -157 -149v-143h-11zM203 321v201c-45 -13 -76 -47 -76 -105c0 -51 34 -82 76 -96zM359 116
c0 52 -34 79 -78 93v-203c49 15 78 54 78 110z" />
    <glyph glyph-name="percent" unicode="%" horiz-adv-x="627" 
d="M308 526c0 -79 -60 -136 -127 -136c-55 0 -131 41 -131 138c0 69 56 130 132 130c63 0 126 -48 126 -132zM533 634l-425 -617l-7 5l425 618zM587 132c0 -79 -60 -136 -127 -136c-55 0 -131 41 -131 138c0 69 56 130 132 130c63 0 126 -48 126 -132zM579 132
c0 80 -59 124 -118 124c-72 0 -124 -57 -124 -122c0 -93 72 -130 123 -130c63 0 119 53 119 128zM300 526c0 80 -59 124 -118 124c-72 0 -124 -57 -124 -122c0 -93 72 -130 123 -130c63 0 119 53 119 128z" />
    <glyph glyph-name="ampersand" unicode="&#x26;" horiz-adv-x="854" 
d="M245 395l1 -1c-45 -37 -94 -103 -94 -184s57 -148 141 -148c83 0 127 19 184 70l-227 263c-58 61 -112 115 -112 188c0 89 90 149 172 149c71 0 146 -42 146 -127c0 -86 -89 -141 -115 -158l-1 1c34 36 43 82 43 137c0 61 -38 138 -91 138c-48 0 -67 -48 -67 -90
c0 -73 34 -104 60 -133l262 -285l108 132c65 85 20 130 -130 143v2h350v-2c-75 -18 -140 -59 -210 -143l-113 -137l87 -95c35 -36 61 -65 116 -65c60 0 95 47 115 80h2c-18 -54 -72 -145 -172 -145s-160 72 -218 142c-36 -50 -128 -137 -238 -137c-124 0 -197 83 -197 180
c0 113 106 179 198 225z" />
    <glyph glyph-name="quotesingle" unicode="'" horiz-adv-x="222" 
d="M170 710l-59 -285h-2l-59 285s20 8 60 8s60 -8 60 -8z" />
    <glyph glyph-name="parenleft" unicode="(" horiz-adv-x="313" 
d="M279 731h8c-120 -92 -241 -217 -241 -436c0 -227 128 -352 242 -438h-8c-116 86 -244 206 -244 438c0 224 121 344 243 436z" />
    <glyph glyph-name="parenright" unicode=")" horiz-adv-x="313" 
d="M27 731h8c122 -92 243 -212 243 -436c0 -232 -128 -352 -244 -438h-8c114 86 242 211 242 438c0 219 -121 344 -241 436z" />
    <glyph glyph-name="asterisk" unicode="*" horiz-adv-x="388" 
d="M196 565h-2l-44 145s15 8 45 8s45 -8 45 -8zM194 534h2l44 -145s-15 -8 -45 -8s-45 8 -45 8zM208 557l-1 1l104 111s14 -9 29 -35s16 -43 16 -43zM181 543l1 -2l-104 -110s-14 9 -29 34c-15 26 -16 43 -16 43zM183 558l-1 -1l-148 34s1 17 16 43s29 35 29 35zM208 541
l1 2l148 -35s-1 -17 -16 -43c-15 -25 -29 -34 -29 -34z" />
    <glyph glyph-name="plus" unicode="+" horiz-adv-x="700" 
d="M575 256h-220v-221h-10v221h-220v9h220v220h10v-220h220v-9z" />
    <glyph glyph-name="comma" unicode="," horiz-adv-x="243" 
d="M205 10c0 -70 -45 -120 -88 -152l-2 7c40 35 75 75 75 125c0 35 -15 60 -40 60s-35 -25 -23 -45c0 0 -12 -7 -27 -7c-25 0 -50 17 -50 52c0 37 32 60 65 60c55 0 90 -45 90 -100z" />
    <glyph glyph-name="hyphen" unicode="-" horiz-adv-x="256" 
d="M243 242h-231v35h231v-35z" />
    <glyph glyph-name="period" unicode="." horiz-adv-x="243" 
d="M182 54c0 -35 -23 -57 -58 -57s-60 24 -60 59s25 61 60 61s58 -28 58 -63z" />
    <glyph glyph-name="slash" unicode="/" horiz-adv-x="480" 
d="M430 757l-372 -891l-8 2l371 892z" />
    <glyph glyph-name="zero" unicode="0" horiz-adv-x="508" 
d="M479 365c0 -213 -97 -372 -227 -372c-128 0 -223 153 -223 368c0 230 101 369 231 369c147 0 219 -173 219 -365zM395 364c0 172 -45 358 -142 358c-102 0 -140 -182 -140 -364c0 -191 47 -357 143 -357c94 0 139 186 139 363z" />
    <glyph glyph-name="one" unicode="1" horiz-adv-x="309" 
d="M203 732v-687c0 -30 30 -40 77 -43v-2h-237v3c47 3 77 12 77 42v600c0 20 -20 45 -53 35v2l134 50h2z" />
    <glyph glyph-name="two" unicode="2" horiz-adv-x="477" 
d="M454 134l-50 -134h-405c101 84 342 298 342 498c0 78 -41 157 -130 157c-111 0 -163 -87 -195 -139l-1 1c28 53 110 210 259 210c91 0 142 -69 142 -166c0 -203 -224 -395 -309 -475v-2h252c71 0 79 22 93 51z" />
    <glyph glyph-name="three" unicode="3" horiz-adv-x="396" 
d="M0 -8v2c150 0 287 51 287 191c0 95 -75 154 -195 163c70 54 166 121 166 219c0 54 -42 94 -105 94c-57 0 -101 -17 -130 -62l-2 1c30 63 80 127 165 127c90 0 154 -53 154 -128c0 -70 -68 -135 -150 -180c97 -20 180 -88 180 -178c0 -150 -145 -272 -370 -249z" />
    <glyph glyph-name="four" unicode="4" horiz-adv-x="551" 
d="M417 252h85c44 0 52 11 64 39l2 -1l-38 -115h-111v-175h-88v175h-318l404 557v-480zM331 252v348l-253 -348h253z" />
    <glyph glyph-name="five" unicode="5" horiz-adv-x="393" 
d="M0 -8v2c160 -10 292 90 292 225c0 100 -67 133 -117 133s-88 -21 -121 -66h-2l44 431h223c44 0 52 11 64 39l2 -1c-9 -24 -25 -72 -43 -134h-246l-24 -227s43 47 113 47c115 0 188 -90 188 -184c0 -163 -198 -288 -373 -265z" />
    <glyph glyph-name="six" unicode="6" horiz-adv-x="512" 
d="M160 417v3s40 30 105 30c135 0 222 -100 222 -213c0 -127 -94 -239 -233 -239c-124 0 -227 119 -227 250c0 239 261 429 448 480l2 -3c-227 -100 -352 -250 -352 -475c0 -150 35 -244 135 -244c80 0 136 70 136 190c-1 119 -45 234 -155 234c-41 0 -81 -13 -81 -13z" />
    <glyph glyph-name="seven" unicode="7" horiz-adv-x="444" 
d="M459 717l-284 -717h-75l315 632h-290c-75 0 -100 -52 -118 -83h-2l65 168h389z" />
    <glyph glyph-name="eight" unicode="8" horiz-adv-x="486" 
d="M185 342v-2c-60 -65 -77 -115 -77 -177c0 -100 56 -160 134 -160c101 0 129 70 129 135c0 202 -327 182 -327 402c0 106 100 187 199 187c124 0 200 -71 200 -156c0 -78 -65 -148 -163 -176v2c75 53 95 103 95 174c0 80 -42 150 -130 150c-71 0 -129 -48 -128 -130
c3 -216 336 -191 336 -398c0 -115 -99 -199 -219 -199c-94 0 -198 64 -198 164c0 82 79 142 149 184z" />
    <glyph glyph-name="nine" unicode="9" horiz-adv-x="512" 
d="M348 308v-3s-40 -30 -105 -30c-135 0 -222 100 -222 213c0 127 94 239 233 239c124 0 227 -119 227 -250c0 -239 -261 -429 -448 -480l-2 3c227 100 352 250 352 475c0 150 -35 244 -135 244c-80 0 -136 -70 -136 -190c1 -119 45 -234 155 -234c41 0 81 13 81 13z" />
    <glyph glyph-name="colon" unicode=":" horiz-adv-x="263" 
d="M192 364c0 -33 -27 -57 -58 -57s-59 22 -59 57c0 34 28 57 59 57s58 -26 58 -57zM192 54c0 -33 -27 -57 -58 -57s-59 21 -59 57c0 34 28 57 59 57s58 -26 58 -57z" />
    <glyph glyph-name="semicolon" unicode=";" horiz-adv-x="265" 
d="M174 250c0 -32 -26 -55 -56 -55s-57 21 -57 55c0 33 27 55 57 55s56 -25 56 -55zM205 10c0 -70 -45 -120 -88 -152l-2 7c40 35 75 75 75 125c0 35 -15 60 -40 60s-35 -25 -23 -45c0 0 -12 -7 -27 -7c-25 0 -50 17 -50 52c0 37 32 60 65 60c55 0 90 -45 90 -100z" />
    <glyph glyph-name="equal" unicode="=" horiz-adv-x="700" 
d="M555 329h-410v10h410v-10zM555 186h-410v10h410v-10z" />
    <glyph glyph-name="question" unicode="?" horiz-adv-x="450" 
d="M259 55c0 -35 -24 -57 -59 -57s-60 24 -60 59s25 61 60 61s59 -28 59 -63zM187 165h2c-39 235 211 255 211 415c0 100 -100 150 -207 150c-93 0 -178 -60 -178 -145c0 -28 24 -52 52 -52c23 0 43 15 48 35c-35 62 -25 154 85 154c56 0 100 -42 100 -102
c0 -140 -250 -220 -113 -455z" />
    <glyph glyph-name="at" unicode="@" horiz-adv-x="868" 
d="M508 200c-69 -81 -158 -180 -242 -180c-46 0 -64 30 -64 65c0 135 231 377 347 377c23 0 41 -14 54 -30l82 35h2l-170 -408c10 -1 19 -3 29 -3c159 0 268 129 268 285c0 154 -132 268 -293 268c-250 0 -417 -226 -417 -460c0 -202 136 -318 324 -318
c116 0 207 39 292 112l2 -2c-82 -79 -186 -120 -311 -120c-214 0 -357 142 -357 345c0 249 202 457 449 457c178 0 322 -115 322 -286s-128 -319 -309 -319c-29 0 -54 6 -75 17l114 280c11 26 15 59 15 82c0 25 -15 53 -44 53c-71 0 -243 -230 -243 -346
c0 -20 12 -37 36 -37c56 0 189 133 189 133z" />
    <glyph glyph-name="A" unicode="A" horiz-adv-x="704" 
d="M441 284l-141 351l-141 -351h282zM105 175l190 470c-8 20 -20 45 -53 35v2l138 52h2l228 -559c60 -145 65 -155 130 -173v-2h-295v2c55 13 95 28 40 173l-41 101h-288l-41 -101c-55 -145 -8 -160 65 -173v-2h-215v2c70 18 81 28 140 173z" />
    <glyph glyph-name="B" unicode="B" horiz-adv-x="745" 
d="M252 376h98c50 0 177 24 177 176c0 108 -97 160 -203 160h-72v-336zM252 8h124c70 0 192 25 192 177c0 115 -73 183 -198 183h-118v-360zM407 0h-369v2c70 13 105 13 105 213v290c0 200 -35 200 -105 213v2c34 0 261 2 333 2c119 0 269 -29 269 -177
c0 -127 -110 -169 -230 -169v-2c139 0 276 -41 276 -179c0 -107 -79 -195 -279 -195z" />
    <glyph glyph-name="C" unicode="C" horiz-adv-x="760" 
d="M437 2c113 0 238 76 276 236h2v-160c-40 -25 -190 -84 -285 -84c-248 0 -402 153 -402 368c0 47 10 125 59 202c57 91 164 171 339 171c95 0 245 -59 285 -84v-160h-2c-38 160 -163 236 -276 236c-173 0 -282 -202 -282 -370c0 -183 114 -355 286 -355z" />
    <glyph glyph-name="D" unicode="D" horiz-adv-x="852" 
d="M406 0h-368v2c70 13 105 13 105 213v290c0 200 -35 200 -105 213v2c34 0 247 1 319 1c84 0 176 3 261 -34c111 -49 204 -145 204 -317c0 -302 -231 -370 -416 -370zM699 359c0 260 -199 352 -349 352h-98v-701h98c150 0 349 67 349 349z" />
    <glyph glyph-name="E" unicode="E" horiz-adv-x="711" 
d="M703 191l-53 -191h-610v2c70 13 105 13 105 213v290c0 200 -30 200 -95 213v2h550l70 -166l-5 -1c-140 162 -215 157 -330 157h-80v-338c207 2 225 78 253 152h2v-315h-2c-33 76 -46 156 -253 157v-356h128c142 0 242 20 315 182z" />
    <glyph glyph-name="F" unicode="F" horiz-adv-x="656" 
d="M605 720l70 -166l-5 -1c-140 162 -220 157 -335 157h-80v-338c207 2 225 78 253 152h2v-315h-2c-33 76 -46 156 -253 157v-151c0 -200 35 -200 105 -213v-2h-320v2c70 13 105 13 105 213v290c0 200 -30 200 -95 213v2h555z" />
    <glyph glyph-name="G" unicode="G" horiz-adv-x="825" 
d="M715 650v-160h-2c-38 160 -163 236 -276 236c-177 0 -286 -168 -286 -367c0 -218 101 -359 281 -359c128 0 173 75 173 190c0 140 -37 139 -110 152v2h295v-2c-55 -13 -76 -13 -75 -213l1 -51c-19 -15 -157 -85 -285 -85c-253 0 -403 140 -403 368c0 67 22 180 114 269
c64 62 155 104 288 104c95 0 245 -59 285 -84z" />
    <glyph glyph-name="H" unicode="H" horiz-adv-x="900" 
d="M255 364v-149c0 -200 25 -200 85 -213v-2h-290v2c65 13 95 13 95 213v290c0 200 -30 200 -95 213v2h290v-2c-60 -13 -85 -13 -85 -213v-133h390v133c0 200 -30 200 -95 213v2h300v-2c-65 -13 -95 -13 -95 -213v-290c0 -200 30 -200 95 -213v-2h-300v2c65 13 95 13 95 213
v149h-390z" />
    <glyph glyph-name="I" unicode="I" horiz-adv-x="399" 
d="M350 0h-300v2c65 13 95 13 95 213v290c0 200 -30 200 -95 213v2h300v-2c-65 -13 -95 -13 -95 -213v-290c0 -200 30 -200 95 -213v-2z" />
    <glyph glyph-name="J" unicode="J" horiz-adv-x="397" 
d="M27 -184l-2 2c100 32 117 82 117 182v505c0 200 -30 200 -95 213v2h300v-2c-65 -13 -95 -13 -95 -213v-530c0 -100 -102 -150 -225 -159z" />
    <glyph glyph-name="K" unicode="K" horiz-adv-x="752" 
d="M360 0h-310v2c65 13 95 13 95 213v290c0 200 -30 200 -95 213v2h310v-2c-70 -13 -105 -13 -105 -213v-290c0 -200 35 -200 105 -213v-2zM790 0h-148c-100 0 -112 33 -137 61c-85 99 -164 200 -247 291c48 28 160 150 223 220c50 56 79 133 -12 146v2h252v-2
c-76 -6 -151 -68 -219 -139c-53 -55 -106 -112 -152 -159c22 -28 161 -198 273 -323c69 -79 79 -85 167 -95v-2z" />
    <glyph glyph-name="L" unicode="L" horiz-adv-x="708" 
d="M713 206l-38 -206h-640v2c72 13 110 13 110 213v290c0 200 -35 200 -105 213v2h320v-2c-70 -13 -105 -13 -105 -213v-495h133c162 0 267 35 320 197z" />
    <glyph glyph-name="M" unicode="M" horiz-adv-x="991" 
d="M275 720l227 -553l236 553h217v-2c-70 -13 -105 -13 -105 -213v-290c0 -200 35 -200 105 -213v-2h-338v2c80 13 125 13 125 213v485l-292 -685h-2l-283 685v-485c0 -200 40 -200 115 -213v-2h-250v2c80 13 125 13 125 213v290c0 200 -35 200 -105 213v2h225z" />
    <glyph glyph-name="N" unicode="N" horiz-adv-x="875" 
d="M300 720l425 -545v330c0 200 -40 200 -115 213v2h240v-2c-75 -13 -116 -13 -115 -213v-530h-2l-568 725v-485c0 -200 40 -200 115 -213v-2h-240v2c75 13 115 13 115 213v290c0 200 -40 200 -115 213v2h260z" />
    <glyph glyph-name="O" unicode="O" 
d="M779 365c0 -213 -172 -372 -377 -372c-203 0 -373 153 -373 368c0 230 177 369 386 369c227 0 364 -173 364 -365zM655 364c0 172 -80 358 -252 358c-176 0 -250 -182 -250 -364c0 -191 82 -357 253 -357c169 0 249 186 249 363z" />
    <glyph glyph-name="P" unicode="P" horiz-adv-x="656" 
d="M252 315c75 -13 167 -16 242 11c73 26 142 88 142 186c0 80 -44 140 -102 172c-60 33 -124 36 -213 36h-283v-2c70 -13 105 -13 105 -213v-290c0 -200 -35 -200 -105 -213v-2h324v2c-72 13 -110 13 -110 213v497h62c116 0 213 -67 213 -195c0 -84 -47 -157 -132 -186
c-41 -14 -88 -16 -143 -16z" />
    <glyph glyph-name="Q" unicode="Q" 
d="M779 365c0 -190 -137 -337 -311 -366c1 -83 66 -118 133 -118c24 0 51 7 77 18v-3c-38 -27 -89 -49 -153 -49c-103 0 -186 42 -199 153c-168 33 -297 173 -297 361c0 230 177 369 386 369c227 0 364 -173 364 -365zM655 364c0 172 -80 358 -252 358
c-176 0 -250 -182 -250 -364c0 -191 82 -357 253 -357c169 0 249 186 249 363z" />
    <glyph glyph-name="R" unicode="R" horiz-adv-x="762" 
d="M314 712h-62v-367c183 -10 275 55 275 187c0 108 -107 180 -213 180zM375 340v-2c100 0 137 -33 157 -61c35 -50 79 -115 111 -160c49 -70 79 -102 154 -115v-2h-205c-23 24 -16 14 -58 76c-50 74 -73 116 -137 190c-26 30 -59 61 -93 68c-25 5 -33 4 -52 5v-124
c0 -200 38 -200 110 -213v-2h-319v2c68 13 100 13 100 213v290c0 200 -32 200 -100 213v2h277c90 0 154 -3 214 -36c58 -32 102 -92 102 -157c0 -127 -136 -187 -261 -187z" />
    <glyph glyph-name="S" unicode="S" horiz-adv-x="605" 
d="M558 197c0 -128 -109 -206 -261 -206c-137 0 -232 59 -232 59v150h2c33 -100 108 -201 229 -201c102 0 166 63 166 158c0 75 -51 108 -115 132c-65 24 -87 29 -147 52c-69 27 -132 95 -132 181c0 143 113 209 240 209c117 0 213 -56 213 -56v-141h-2
c-34 91 -94 189 -212 189c-88 0 -150 -54 -150 -149c0 -70 48 -111 115 -136c54 -21 91 -31 143 -50c90 -33 143 -97 143 -191z" />
    <glyph glyph-name="T" unicode="T" horiz-adv-x="737" 
d="M525 0h-320v2c70 13 105 13 105 213v495h-30c-165 0 -205 -15 -295 -177l-5 1l35 186h700l35 -186l-5 -1c-90 162 -130 177 -295 177h-30v-495c0 -200 35 -200 105 -213v-2z" />
    <glyph glyph-name="U" unicode="U" horiz-adv-x="834" 
d="M240 505l1 -259c3 -147 75 -234 213 -234c232 0 249 173 251 308c1 72 0 128 0 185c0 200 -48 200 -130 213v2h255v-2c-75 -13 -116 -13 -115 -213v-185c-2 -110 -3 -332 -295 -332c-287 0 -290 214 -290 264c0 43 2 190 0 253c0 200 -30 200 -95 213v2h300v-2
c-65 -13 -95 -13 -95 -213z" />
    <glyph glyph-name="V" unicode="V" horiz-adv-x="667" 
d="M230 545l155 -415l170 415c55 145 2 160 -85 173v2h235v-2c-70 -18 -80 -28 -140 -173l-230 -559h-2l-228 559c-60 145 -70 155 -140 173v2h305v-2c-65 -13 -95 -28 -40 -173z" />
    <glyph glyph-name="W" unicode="W" horiz-adv-x="991" 
d="M220 545l148 -390l130 355l-13 35c-55 147 -75 155 -140 173v2h310v-2c-73 -13 -108 -26 -55 -173l140 -388l145 388c50 147 2 160 -85 173v2h225v-2c-65 -18 -75 -26 -130 -173l-210 -559h-2l-180 512l-188 -512h-2l-208 559c-55 147 -65 155 -130 173v2h280v-2
c-58 -13 -90 -27 -35 -173z" />
    <glyph glyph-name="X" unicode="X" horiz-adv-x="708" 
d="M320 336l-170 239c-60 85 -95 125 -145 143v2h325v-2c-95 -13 -108 -57 -48 -143l121 -174l142 174c65 85 40 130 -70 143v2h260v-2c-60 -18 -110 -58 -180 -143l-147 -179l176 -251c60 -85 95 -125 145 -143v-2h-325v2c95 13 107 58 48 143l-127 185l-154 -185
c-65 -85 -41 -130 75 -143v-2h-265v2c60 18 109 58 180 143z" />
    <glyph glyph-name="Y" unicode="Y" horiz-adv-x="649" 
d="M377 346v-131c0 -200 30 -200 95 -213v-2h-300v2c65 13 95 13 95 213v105l-157 255c-56 90 -70 125 -135 143v2h305v-2c-70 -13 -100 -53 -45 -143l137 -222l143 222c60 90 32 130 -65 143v2h235v-2c-60 -18 -102 -53 -160 -143z" />
    <glyph glyph-name="Z" unicode="Z" horiz-adv-x="694" 
d="M693 226l-73 -226h-610c0 2 515 708 515 710h-225c-100 0 -175 -42 -283 -204l-5 1l78 213h575c0 -2 -515 -708 -515 -710h175c175 0 275 55 363 217z" />
    <glyph glyph-name="bracketleft" unicode="[" horiz-adv-x="286" 
d="M276 -107h-227v827h227v-10h-215v-807h215v-10z" />
    <glyph glyph-name="backslash" unicode="\" horiz-adv-x="480" 
d="M422 -134l-372 891l9 3l371 -892z" />
    <glyph glyph-name="bracketright" unicode="]" horiz-adv-x="286" 
d="M237 -107h-227v10h215v807h-215v10h227v-827z" />
    <glyph glyph-name="underscore" unicode="_" horiz-adv-x="500" 
d="M500 -117h-500v10h500v-10z" />
    <glyph glyph-name="grave" unicode="`" horiz-adv-x="500" 
d="M293 515l-168 185h100l70 -185h-2z" />
    <glyph glyph-name="a" unicode="a" horiz-adv-x="448" 
d="M200 445c-75 0 -105 -65 -83 -105c-5 -20 -25 -35 -48 -35c-21 0 -39 18 -39 38c0 33 37 52 59 65c69 41 149 75 183 75c35 0 69 -21 82 -47c5 -9 6 -36 6 -59c0 -95 -2 -148 -2 -239c0 -60 25 -74 53 -74c33 0 46 14 51 34h2c-3 -51 -43 -101 -99 -101
c-45 0 -87 25 -87 92v191c-54 -30 -160 -71 -160 -151c0 -35 27 -69 65 -69c42 0 67 15 95 32c-24 -38 -75 -93 -146 -93c-42 0 -93 26 -93 95c0 37 33 72 78 101c87 57 161 92 161 95v109c0 11 -28 46 -78 46z" />
    <glyph glyph-name="b" unicode="b" horiz-adv-x="538" 
d="M65 3v640l-67 30v2l148 51h2v-626c17 -60 69 -92 120 -92c105 0 147 103 147 223c0 110 -53 214 -148 214c-40 0 -86 -25 -119 -61c29 46 79 99 168 99c99 0 192 -84 192 -239c0 -139 -102 -247 -255 -247c-53 0 -105 18 -153 60h-2l-31 -54h-2z" />
    <glyph glyph-name="c" unicode="c" horiz-adv-x="432" 
d="M441 143c-23 -79 -101 -148 -200 -148c-129 0 -221 110 -221 247c0 127 95 241 226 241c88 0 178 -43 178 -119c0 -28 -24 -52 -52 -52c-23 0 -43 15 -48 35c26 53 1 128 -76 128c-84 0 -143 -88 -143 -207c0 -131 64 -210 170 -210c50 0 125 17 165 87z" />
    <glyph glyph-name="d" unicode="d" horiz-adv-x="546" 
d="M460 728h2v-650l72 -30v-2l-153 -51h-2l-1 386c-18 59 -68 91 -119 91c-105 0 -147 -103 -147 -223c0 -110 53 -214 148 -214c40 0 86 25 119 61c-29 -46 -79 -99 -168 -99c-99 0 -192 84 -192 239c0 139 102 247 255 247c40 0 76 -8 105 -17v179l-83 30v2z" />
    <glyph glyph-name="e" unicode="e" horiz-adv-x="435" 
d="M425 318l-321 2c-2 -15 -2 -28 -2 -42c0 -128 73 -213 173 -213c50 0 100 10 150 62l2 -2c-27 -50 -77 -128 -182 -128c-145 0 -227 128 -227 255c0 108 82 231 213 231c105 0 186 -53 194 -165zM105 327l155 3c55 2 65 20 65 50c0 50 -30 95 -90 95s-118 -56 -130 -148z
" />
    <glyph glyph-name="f" unicode="f" horiz-adv-x="270" 
d="M255 715c-30 0 -80 -15 -83 -90c-2 -50 -3 -90 -3 -152h118l-8 -36h-111v-392c0 -30 35 -40 87 -43v-2h-257v3c52 3 87 12 87 42v392h-67l6 36h62c0 56 2 116 16 145c30 61 98 108 194 108c54 0 94 -26 94 -66c0 -25 -15 -45 -45 -45c-20 0 -38 12 -45 32
c20 33 0 68 -45 68z" />
    <glyph glyph-name="g" unicode="g" horiz-adv-x="525" 
d="M350 339c0 78 -34 136 -109 136c-70 0 -106 -66 -106 -146c0 -89 45 -141 105 -141c74 0 110 67 110 151zM275 3h-139c-61 -1 -106 36 -106 87c0 50 50 103 158 95c-73 -3 -98 -21 -98 -48c0 -43 58 -53 103 -53h160c93 0 152 -62 152 -141c0 -105 -110 -195 -261 -195
c-145 0 -230 46 -230 122c0 70 87 123 175 133c-79 -15 -100 -78 -100 -113c0 -90 86 -135 171 -135c115 0 175 65 178 145c2 40 -13 103 -163 103zM475 500c8 5 17 7 27 7c23 0 38 -15 38 -37c0 -65 -105 -70 -162 -23v-2c32 -25 52 -65 52 -106c0 -105 -83 -158 -197 -158
c-123 0 -178 74 -178 149c0 85 82 153 194 153c51 0 86 -9 129 -31c72 -37 102 13 97 48z" />
    <glyph glyph-name="h" unicode="h" horiz-adv-x="524" 
d="M85 45v598l-57 30v2l138 51h2v-681c0 -30 17 -40 52 -43v-2h-192v3c37 3 57 12 57 42zM450 330v-285c0 -30 23 -40 62 -43v-2h-202v3c37 3 57 12 57 42v245c0 77 -27 129 -96 129c-41 0 -70 -19 -103 -45c31 46 92 109 162 109c77 0 120 -63 120 -153z" />
    <glyph glyph-name="i" unicode="i" horiz-adv-x="254" 
d="M177 641c0 -30 -24 -54 -54 -54c-29 0 -54 25 -54 54c0 30 24 53 54 53s54 -23 54 -53zM85 45v355l-57 30v2l138 51h2v-438c0 -30 20 -40 57 -43v-2h-197v3c37 3 57 12 57 42z" />
    <glyph glyph-name="j" unicode="j" horiz-adv-x="246" 
d="M179 639c0 -30 -24 -54 -54 -54c-29 0 -54 25 -54 54c0 30 24 53 54 53s54 -23 54 -53zM-20 -243l-2 1c110 26 110 92 110 278v363l-57 30v2l138 51h2c0 -54 1 -428 1 -507c0 -150 -82 -193 -192 -218z" />
    <glyph glyph-name="k" unicode="k" horiz-adv-x="488" 
d="M83 45v595l-67 30v2l148 51h2v-678c0 -30 30 -40 77 -43v-2h-237v3c47 3 77 12 77 42zM255 310c0 0 156 -228 182 -265c21 -30 38 -39 92 -42v-3h-244v2c65 3 50 38 30 66c-25 36 -102 147 -102 147c-12 16 -20 30 -35 30c0 0 137 130 167 160s5 63 -65 66v2h247v-3
c-77 -3 -112 -8 -172 -65c-31 -29 -103 -98 -100 -95z" />
    <glyph glyph-name="l" unicode="l" horiz-adv-x="246" 
d="M83 45v595l-67 30v2l148 51h2v-678c0 -30 30 -40 77 -43v-2h-237v3c47 3 77 12 77 42z" />
    <glyph glyph-name="m" unicode="m" horiz-adv-x="794" 
d="M85 45v355l-57 30v2l138 51h2v-438c0 -30 20 -40 57 -43v-2h-197v3c37 3 57 12 57 42zM445 330v-285c0 -30 20 -40 57 -43v-2h-197v3c39 3 57 12 57 42v245c0 77 -22 129 -91 129c-41 0 -70 -19 -103 -45c31 46 92 109 162 109c77 0 115 -63 115 -153zM725 330v-285
c0 -30 20 -40 57 -43v-2h-197v3c39 3 57 12 57 42v245c0 77 -22 129 -91 129c-41 0 -72 -19 -108 -55c34 56 97 119 167 119c77 0 115 -63 115 -153z" />
    <glyph glyph-name="n" unicode="n" horiz-adv-x="521" 
d="M85 45v355l-57 30v2l138 51h2v-438c0 -30 17 -40 52 -43v-2h-192v3c37 3 57 12 57 42zM450 330v-285c0 -30 23 -40 62 -43v-2h-202v3c37 3 57 12 57 42v245c0 77 -27 129 -96 129c-41 0 -70 -19 -103 -45c31 46 92 109 162 109c77 0 120 -63 120 -153z" />
    <glyph glyph-name="o" unicode="o" horiz-adv-x="511" 
d="M492 245c0 -136 -108 -250 -234 -250c-104 0 -239 78 -239 250c0 122 96 238 241 238c106 0 232 -79 232 -238zM399 246c0 101 -34 229 -146 229c-90 0 -141 -115 -141 -236c0 -132 40 -236 147 -236c105 0 140 139 140 243z" />
    <glyph glyph-name="p" unicode="p" horiz-adv-x="534" 
d="M162 483v-351c0 -42 23 -116 112 -116c79 0 150 87 150 220c0 100 -48 182 -150 182c-49 0 -78 -18 -112 -44c32 46 93 109 169 109c125 0 183 -112 183 -218c0 -150 -107 -260 -280 -260c-24 0 -47 1 -72 6v-198c0 -30 33 -40 82 -43v-2h-247v3c49 3 82 12 82 42v587
l-72 30v2l153 51h2z" />
    <glyph glyph-name="q" unicode="q" horiz-adv-x="548" 
d="M380 -187v567c-17 60 -69 92 -120 92c-105 0 -147 -103 -147 -223c0 -110 53 -214 148 -214c40 0 86 25 119 61c-29 -46 -79 -99 -168 -99c-99 0 -192 84 -192 239c0 139 102 247 255 247c53 0 105 -18 153 -60h2l31 54h2v-664c0 -30 30 -40 77 -43v-2h-237v3
c47 3 77 12 77 42z" />
    <glyph glyph-name="r" unicode="r" horiz-adv-x="357" 
d="M168 344c16 56 57 139 137 139c35 0 62 -22 62 -53c0 -30 -27 -50 -52 -50c0 0 -15 35 -60 35c-33 0 -70 -30 -87 -71zM85 45v355l-57 30v2l138 51h2v-438c0 -30 20 -40 82 -43v-2h-222v3c37 3 57 12 57 42z" />
    <glyph glyph-name="s" unicode="s" horiz-adv-x="382" 
d="M369 146c0 -104 -89 -150 -187 -150c-58 0 -111 13 -155 33v132h2c22 -64 59 -157 153 -157c67 0 108 33 108 112c0 47 -31 76 -76 85c-36 7 -70 15 -97 24c-50 17 -85 63 -85 122c0 82 74 136 161 136c56 0 97 -11 135 -26l12 -124h-2c-37 81 -72 142 -153 142
c-48 0 -94 -29 -94 -93c0 -55 35 -73 77 -83c29 -7 68 -15 93 -21c60 -14 108 -65 108 -132z" />
    <glyph glyph-name="t" unicode="t" horiz-adv-x="324" 
d="M351 473l-26 -51h-157v-288c0 -68 32 -97 79 -97c25 0 58 13 85 51h2c-15 -41 -57 -92 -141 -92c-55 0 -109 44 -109 87v339h-71v2l151 136h2v-87h185z" />
    <glyph glyph-name="u" unicode="u" horiz-adv-x="523" 
d="M440 473v-410l62 -33v-2l-143 -33h-2v433c0 30 -17 40 -52 43v2h135zM75 138v290c0 30 -23 40 -62 43v2h145v-295c0 -77 27 -119 96 -119c41 0 70 19 103 45c-31 -46 -92 -109 -162 -109c-77 0 -120 53 -120 143z" />
    <glyph glyph-name="v" unicode="v" horiz-adv-x="431" 
d="M250 112l112 293c10 25 13 63 -61 66v2h170v-3c-64 -3 -91 -40 -101 -65c-18 -44 -158 -412 -158 -412h-2s-142 368 -160 412c-10 25 -31 62 -85 65v3h244v-2c-65 -3 -82 -36 -70 -66c16 -40 111 -293 111 -293z" />
    <glyph glyph-name="w" unicode="w" horiz-adv-x="739" 
d="M506 -7l-146 382l-148 -382h-2s-142 368 -160 412c-10 25 -31 62 -85 65v3h244v-2c-65 -3 -82 -36 -70 -66c16 -40 109 -293 111 -293c0 0 77 201 105 273l-8 20c-10 25 -32 62 -86 65v3h244v-2c-65 -3 -82 -36 -70 -66c16 -40 110 -293 110 -293c2 0 96 251 113 293
c10 25 13 63 -61 66v2h170v-3c-64 -3 -91 -40 -101 -65c-18 -44 -158 -412 -158 -412h-2z" />
    <glyph glyph-name="x" unicode="x" horiz-adv-x="458" 
d="M267 272c0 0 58 85 88 133c25 40 -5 63 -65 66v2h192v-3c-57 -3 -87 -20 -117 -65l-93 -140s88 -155 110 -195c25 -45 43 -64 97 -67v-3h-234v2c65 3 55 35 40 68c-17 37 -68 132 -68 132s-64 -85 -95 -132c-27 -40 5 -64 65 -67v-2h-197v3c57 3 90 21 122 66l100 139
s-91 158 -112 196c-25 45 -50 63 -105 66v3h239v-2c-59 -3 -54 -34 -39 -67c17 -37 72 -133 72 -133z" />
    <glyph glyph-name="y" unicode="y" horiz-adv-x="416" 
d="M173 -188c-13 -44 -38 -57 -73 -57c-40 0 -65 24 -65 58c0 30 20 45 40 45s35 -13 40 -38c-20 -20 -5 -45 12 -45c13 0 28 5 38 37l47 151s-144 398 -162 442c-10 25 -31 62 -85 65v3h219v-2c-54 -3 -57 -36 -45 -66c16 -40 111 -318 111 -318c2 0 88 275 102 318
c8 25 13 63 -61 66v2h150v-3c-54 -3 -73 -40 -81 -65c-15 -45 -149 -464 -187 -593z" />
    <glyph glyph-name="z" unicode="z" horiz-adv-x="433" 
d="M437 150l-12 -150h-410l290 462h-148c-97 0 -112 -37 -138 -112h-2l18 122h375l-293 -462h157c107 0 136 50 161 140h2z" />
    <glyph glyph-name="braceleft" unicode="{" horiz-adv-x="286" 
d="M195 179c0 -106 -109 -124 -109 -206c0 -64 68 -77 100 -57c13 -6 15 -13 15 -20c0 -11 -9 -18 -21 -18c-35 0 -112 53 -112 112c0 91 98 103 98 190c0 73 -74 115 -127 120v2c53 5 127 44 127 120c0 88 -100 99 -100 190c0 59 79 112 114 112c12 0 21 -7 21 -18
c0 -7 -2 -14 -15 -20c-28 20 -100 9 -100 -57c0 -82 109 -100 109 -206c0 -62 -62 -104 -128 -121v-2c64 -15 128 -59 128 -121z" />
    <glyph glyph-name="bar" unicode="|" 
d="M655 364c0 172 -80 358 -252 358c-176 0 -250 -182 -250 -364c0 -191 82 -357 253 -357c169 0 249 186 249 363zM500 12v-2c50 5 109 1 142 -11c197 -74 333 -160 515 -160c29 0 73 19 92 31l1 -2c-55 -44 -157 -77 -267 -78c-84 -1 -139 18 -224 49
c-122 44 -183 69 -302 115c-47 18 -67 26 -114 44c-168 27 -314 171 -314 363c0 230 177 369 386 369c227 0 364 -173 364 -365c0 -168 -134 -305 -279 -353z" />
    <glyph glyph-name="braceright" unicode="}" horiz-adv-x="286" 
d="M90 423c0 106 109 124 109 206c0 64 -68 77 -100 57c-13 6 -15 13 -15 20c0 11 9 18 21 18c35 0 112 -53 112 -112c0 -91 -98 -103 -98 -190c0 -73 74 -115 127 -120v-2c-53 -5 -127 -44 -127 -120c0 -88 100 -99 100 -190c0 -59 -79 -112 -114 -112c-12 0 -21 7 -21 18
c0 7 2 14 15 20c28 -20 100 -9 100 57c0 82 -109 100 -109 206c0 62 62 104 128 121v2c-64 15 -128 59 -128 121z" />
    <glyph glyph-name="Adieresis" unicode="&#xc4;" horiz-adv-x="704" 
d="M496 815c0 -25 -21 -46 -46 -46s-46 21 -46 46s21 46 46 46s46 -21 46 -46zM320 815c0 -25 -21 -46 -46 -46s-46 21 -46 46s21 46 46 46s46 -21 46 -46zM441 284l-141 351l-141 -351h282zM105 175l190 470c-8 20 -20 45 -53 35v2l138 52h2l228 -559
c60 -145 65 -155 130 -173v-2h-295v2c55 13 95 28 40 173l-41 101h-288l-41 -101c-55 -145 -8 -160 65 -173v-2h-215v2c70 18 81 28 140 173z" />
    <glyph glyph-name="Aring" unicode="&#xc5;" horiz-adv-x="704" 
d="M441 284l-141 351l-141 -351h282zM105 175l190 470c-8 20 -20 45 -53 35v2l138 52h2l228 -559c60 -145 65 -155 130 -173v-2h-295v2c55 13 95 28 40 173l-41 101h-288l-41 -101c-55 -145 -8 -160 65 -173v-2h-215v2c70 18 81 28 140 173zM421 822c0 -41 -31 -72 -74 -72
c-44 0 -74 30 -74 72c0 41 33 72 74 72c42 0 74 -30 74 -72zM413 822c0 38 -28 64 -66 64c-37 0 -66 -27 -66 -64c0 -38 26 -64 66 -64c39 0 66 27 66 64z" />
    <glyph glyph-name="Ccedilla" unicode="&#xc7;" horiz-adv-x="776" 
d="M510 -134c0 -66 -68 -100 -115 -100c-50 0 -86 13 -86 45c0 13 9 29 31 29c10 0 20 -2 29 -11c-19 -24 -4 -55 31 -55c29 0 54 21 54 61c0 50 -40 72 -93 88l79 65h2l-11 -36c69 -22 79 -60 79 -86zM437 2c113 0 238 76 276 236h2v-160c-40 -25 -190 -84 -285 -84
c-248 0 -402 153 -402 368c0 47 10 125 59 202c57 91 164 171 339 171c95 0 245 -59 285 -84v-160h-2c-38 160 -163 236 -276 236c-173 0 -282 -202 -282 -370c0 -183 114 -355 286 -355z" />
    <glyph glyph-name="Eacute" unicode="&#xc9;" horiz-adv-x="711" 
d="M540 935l-218 -175h-2l95 175h125zM703 191l-53 -191h-610v2c70 13 105 13 105 213v290c0 200 -30 200 -95 213v2h550l70 -166l-5 -1c-140 162 -215 157 -330 157h-80v-338c207 2 225 78 253 152h2v-315h-2c-33 76 -46 156 -253 157v-356h128c142 0 242 20 315 182z" />
    <glyph glyph-name="Ntilde" unicode="&#xd1;" horiz-adv-x="875" 
d="M575 790h-225l-43 -40h-2l50 105h225l44 43h2zM300 720l425 -545v330c0 200 -40 200 -115 213v2h240v-2c-75 -13 -116 -13 -115 -213v-530h-2l-568 725v-485c0 -200 40 -200 115 -213v-2h-240v2c75 13 115 13 115 213v290c0 200 -40 200 -115 213v2h260z" />
    <glyph glyph-name="Odieresis" unicode="&#xd6;" 
d="M542 830c0 -25 -21 -46 -46 -46s-46 21 -46 46s21 46 46 46s46 -21 46 -46zM365 830c0 -25 -21 -46 -46 -46s-46 21 -46 46s21 46 46 46s46 -21 46 -46zM779 365c0 -213 -172 -372 -377 -372c-203 0 -373 153 -373 368c0 230 177 369 386 369c227 0 364 -173 364 -365z
M655 364c0 172 -80 358 -252 358c-176 0 -250 -182 -250 -364c0 -191 82 -357 253 -357c169 0 249 186 249 363z" />
    <glyph glyph-name="Udieresis" unicode="&#xdc;" horiz-adv-x="834" 
d="M585 830c0 -25 -21 -46 -46 -46s-46 21 -46 46s21 46 46 46s46 -21 46 -46zM408 830c0 -25 -21 -46 -46 -46s-46 21 -46 46s21 46 46 46s46 -21 46 -46zM240 505l1 -259c3 -147 75 -234 213 -234c232 0 249 173 251 308c1 72 0 128 0 185c0 200 -48 200 -130 213v2h255
v-2c-75 -13 -116 -13 -115 -213v-185c-2 -110 -3 -332 -295 -332c-287 0 -290 214 -290 264c0 43 2 190 0 253c0 200 -30 200 -95 213v2h300v-2c-65 -13 -95 -13 -95 -213z" />
    <glyph glyph-name="aacute" unicode="&#xe1;" horiz-adv-x="448" 
d="M355 700l-168 -185h-2l70 185h100zM200 445c-75 0 -105 -65 -83 -105c-5 -20 -25 -35 -48 -35c-21 0 -39 18 -39 38c0 33 37 52 59 65c69 41 149 75 183 75c35 0 69 -21 82 -47c5 -9 6 -36 6 -59c0 -95 -2 -148 -2 -239c0 -60 25 -74 53 -74c33 0 46 14 51 34h2
c-3 -51 -43 -101 -99 -101c-45 0 -87 25 -87 92v191c-54 -30 -160 -71 -160 -151c0 -35 27 -69 65 -69c42 0 67 15 95 32c-24 -38 -75 -93 -146 -93c-42 0 -93 26 -93 95c0 37 33 72 78 101c87 57 161 92 161 95v109c0 11 -28 46 -78 46z" />
    <glyph glyph-name="agrave" unicode="&#xe0;" horiz-adv-x="448" 
d="M273 515l-168 185h100l70 -185h-2zM200 445c-75 0 -105 -65 -83 -105c-5 -20 -25 -35 -48 -35c-21 0 -39 18 -39 38c0 33 37 52 59 65c69 41 149 75 183 75c35 0 69 -21 82 -47c5 -9 6 -36 6 -59c0 -95 -2 -148 -2 -239c0 -60 25 -74 53 -74c33 0 46 14 51 34h2
c-3 -51 -43 -101 -99 -101c-45 0 -87 25 -87 92v191c-54 -30 -160 -71 -160 -151c0 -35 27 -69 65 -69c42 0 67 15 95 32c-24 -38 -75 -93 -146 -93c-42 0 -93 26 -93 95c0 37 33 72 78 101c87 57 161 92 161 95v109c0 11 -28 46 -78 46z" />
    <glyph glyph-name="acircumflex" unicode="&#xe2;" horiz-adv-x="448" 
d="M215 605l-128 -65h-2l130 160l130 -160h-2zM200 445c-75 0 -105 -65 -83 -105c-5 -20 -25 -35 -48 -35c-21 0 -39 18 -39 38c0 33 37 52 59 65c69 41 149 75 183 75c35 0 69 -21 82 -47c5 -9 6 -36 6 -59c0 -95 -2 -148 -2 -239c0 -60 25 -74 53 -74c33 0 46 14 51 34h2
c-3 -51 -43 -101 -99 -101c-45 0 -87 25 -87 92v191c-54 -30 -160 -71 -160 -151c0 -35 27 -69 65 -69c42 0 67 15 95 32c-24 -38 -75 -93 -146 -93c-42 0 -93 26 -93 95c0 37 33 72 78 101c87 57 161 92 161 95v109c0 11 -28 46 -78 46z" />
    <glyph glyph-name="adieresis" unicode="&#xe4;" horiz-adv-x="448" 
d="M348 600c0 -25 -21 -46 -46 -46s-46 21 -46 46s21 46 46 46s46 -21 46 -46zM191 600c0 -25 -21 -46 -46 -46s-46 21 -46 46s21 46 46 46s46 -21 46 -46zM200 445c-75 0 -105 -65 -83 -105c-5 -20 -25 -35 -48 -35c-21 0 -39 18 -39 38c0 33 37 52 59 65
c69 41 149 75 183 75c35 0 69 -21 82 -47c5 -9 6 -36 6 -59c0 -95 -2 -148 -2 -239c0 -60 25 -74 53 -74c33 0 46 14 51 34h2c-3 -51 -43 -101 -99 -101c-45 0 -87 25 -87 92v191c-54 -30 -160 -71 -160 -151c0 -35 27 -69 65 -69c42 0 67 15 95 32
c-24 -38 -75 -93 -146 -93c-42 0 -93 26 -93 95c0 37 33 72 78 101c87 57 161 92 161 95v109c0 11 -28 46 -78 46z" />
    <glyph glyph-name="atilde" unicode="&#xe3;" horiz-adv-x="448" 
d="M325 555h-225l-43 -40h-2l50 105h225l44 43h2zM200 445c-75 0 -105 -65 -83 -105c-5 -20 -25 -35 -48 -35c-21 0 -39 18 -39 38c0 33 37 52 59 65c69 41 149 75 183 75c35 0 69 -21 82 -47c5 -9 6 -36 6 -59c0 -95 -2 -148 -2 -239c0 -60 25 -74 53 -74c33 0 46 14 51 34
h2c-3 -51 -43 -101 -99 -101c-45 0 -87 25 -87 92v191c-54 -30 -160 -71 -160 -151c0 -35 27 -69 65 -69c42 0 67 15 95 32c-24 -38 -75 -93 -146 -93c-42 0 -93 26 -93 95c0 37 33 72 78 101c87 57 161 92 161 95v109c0 11 -28 46 -78 46z" />
    <glyph glyph-name="aring" unicode="&#xe5;" horiz-adv-x="448" 
d="M305 592c0 -41 -31 -72 -74 -72c-44 0 -74 30 -74 72c0 41 33 72 74 72c42 0 74 -30 74 -72zM297 592c0 38 -28 64 -66 64c-37 0 -66 -27 -66 -64c0 -38 26 -64 66 -64c39 0 66 27 66 64zM200 445c-75 0 -105 -65 -83 -105c-5 -20 -25 -35 -48 -35c-21 0 -39 18 -39 38
c0 33 37 52 59 65c69 41 149 75 183 75c35 0 69 -21 82 -47c5 -9 6 -36 6 -59c0 -95 -2 -148 -2 -239c0 -60 25 -74 53 -74c33 0 46 14 51 34h2c-3 -51 -43 -101 -99 -101c-45 0 -87 25 -87 92v191c-54 -30 -160 -71 -160 -151c0 -35 27 -69 65 -69c42 0 67 15 95 32
c-24 -38 -75 -93 -146 -93c-42 0 -93 26 -93 95c0 37 33 72 78 101c87 57 161 92 161 95v109c0 11 -28 46 -78 46z" />
    <glyph glyph-name="ccedilla" unicode="&#xe7;" horiz-adv-x="432" 
d="M441 143c-23 -79 -101 -148 -200 -148c-129 0 -221 110 -221 247c0 127 95 241 226 241c88 0 178 -43 178 -119c0 -28 -24 -52 -52 -52c-23 0 -43 15 -48 35c26 53 1 128 -76 128c-84 0 -143 -88 -143 -207c0 -131 64 -210 170 -210c50 0 125 17 165 87zM330 -134
c0 -62 -68 -90 -105 -90c-45 0 -76 13 -76 45c0 13 9 29 31 29c10 0 20 -2 29 -11c-19 -24 -9 -55 21 -55c24 0 44 16 44 61c0 40 -25 62 -73 78l69 65h2l-10 -35c63 -25 68 -71 68 -87z" />
    <glyph glyph-name="eacute" unicode="&#xe9;" horiz-adv-x="435" 
d="M370 700l-168 -185h-2l70 185h100zM425 318l-321 2c-2 -15 -2 -28 -2 -42c0 -128 73 -213 173 -213c50 0 100 10 150 62l2 -2c-27 -50 -77 -128 -182 -128c-145 0 -227 128 -227 255c0 108 82 231 213 231c105 0 186 -53 194 -165zM105 327l155 3c55 2 65 20 65 50
c0 50 -30 95 -90 95s-118 -56 -130 -148z" />
    <glyph glyph-name="egrave" unicode="&#xe8;" horiz-adv-x="435" 
d="M273 515l-168 185h100l70 -185h-2zM425 318l-321 2c-2 -15 -2 -28 -2 -42c0 -128 73 -213 173 -213c50 0 100 10 150 62l2 -2c-27 -50 -77 -128 -182 -128c-145 0 -227 128 -227 255c0 108 82 231 213 231c105 0 186 -53 194 -165zM105 327l155 3c55 2 65 20 65 50
c0 50 -30 95 -90 95s-118 -56 -130 -148z" />
    <glyph glyph-name="ecircumflex" unicode="&#xea;" horiz-adv-x="435" 
d="M240 605l-128 -65h-2l130 160l130 -160h-2zM425 318l-321 2c-2 -15 -2 -28 -2 -42c0 -128 73 -213 173 -213c50 0 100 10 150 62l2 -2c-27 -50 -77 -128 -182 -128c-145 0 -227 128 -227 255c0 108 82 231 213 231c105 0 186 -53 194 -165zM105 327l155 3
c55 2 65 20 65 50c0 50 -30 95 -90 95s-118 -56 -130 -148z" />
    <glyph glyph-name="edieresis" unicode="&#xeb;" horiz-adv-x="435" 
d="M356 600c0 -25 -21 -46 -46 -46s-46 21 -46 46s21 46 46 46s46 -21 46 -46zM198 600c0 -25 -21 -46 -46 -46s-46 21 -46 46s21 46 46 46s46 -21 46 -46zM425 318l-321 2c-2 -15 -2 -28 -2 -42c0 -128 73 -213 173 -213c50 0 100 10 150 62l2 -2
c-27 -50 -77 -128 -182 -128c-145 0 -227 128 -227 255c0 108 82 231 213 231c105 0 186 -53 194 -165zM105 327l155 3c55 2 65 20 65 50c0 50 -30 95 -90 95s-118 -56 -130 -148z" />
    <glyph glyph-name="iacute" unicode="&#xed;" horiz-adv-x="254" 
d="M240 700l-168 -185h-2l70 185h100zM85 45v355l-57 30v2l138 51h2v-438c0 -30 20 -40 57 -43v-2h-197v3c37 3 57 12 57 42z" />
    <glyph glyph-name="igrave" unicode="&#xec;" horiz-adv-x="254" 
d="M163 515l-168 185h100l70 -185h-2zM85 45v355l-57 30v2l138 51h2v-438c0 -30 20 -40 57 -43v-2h-197v3c37 3 57 12 57 42z" />
    <glyph glyph-name="icircumflex" unicode="&#xee;" horiz-adv-x="254" 
d="M85 45v355l-57 30v2l138 51h2v-438c0 -30 20 -40 57 -43v-2h-197v3c37 3 57 12 57 42zM120 605l-128 -65h-2l130 160l130 -160h-2z" />
    <glyph glyph-name="idieresis" unicode="&#xef;" horiz-adv-x="254" 
d="M237 600c0 -25 -21 -46 -46 -46s-46 21 -46 46s21 46 46 46s46 -21 46 -46zM95 600c0 -25 -21 -46 -46 -46s-46 21 -46 46s21 46 46 46s46 -21 46 -46zM85 45v355l-57 30v2l138 51h2v-438c0 -30 20 -40 57 -43v-2h-197v3c37 3 57 12 57 42z" />
    <glyph glyph-name="ntilde" unicode="&#xf1;" horiz-adv-x="522" 
d="M375 555h-225l-43 -40h-2l50 105h225l44 43h2zM85 45v355l-57 30v2l138 51h2v-438c0 -30 17 -40 52 -43v-2h-192v3c37 3 57 12 57 42zM450 330v-285c0 -30 23 -40 62 -43v-2h-202v3c37 3 57 12 57 42v245c0 77 -27 129 -96 129c-41 0 -70 -19 -103 -45
c31 46 92 109 162 109c77 0 120 -63 120 -153z" />
    <glyph glyph-name="oacute" unicode="&#xf3;" horiz-adv-x="511" 
d="M385 700l-168 -185h-2l70 185h100zM492 245c0 -136 -108 -250 -234 -250c-104 0 -239 78 -239 250c0 122 96 238 241 238c106 0 232 -79 232 -238zM399 246c0 101 -34 229 -146 229c-90 0 -141 -115 -141 -236c0 -132 40 -236 147 -236c105 0 140 139 140 243z" />
    <glyph glyph-name="ograve" unicode="&#xf2;" horiz-adv-x="511" 
d="M298 515l-168 185h100l70 -185h-2zM492 245c0 -136 -108 -250 -234 -250c-104 0 -239 78 -239 250c0 122 96 238 241 238c106 0 232 -79 232 -238zM399 246c0 101 -34 229 -146 229c-90 0 -141 -115 -141 -236c0 -132 40 -236 147 -236c105 0 140 139 140 243z" />
    <glyph glyph-name="ocircumflex" unicode="&#xf4;" horiz-adv-x="511" 
d="M492 245c0 -136 -108 -250 -234 -250c-104 0 -239 78 -239 250c0 122 96 238 241 238c106 0 232 -79 232 -238zM399 246c0 101 -34 229 -146 229c-90 0 -141 -115 -141 -236c0 -132 40 -236 147 -236c105 0 140 139 140 243zM255 605l-128 -65h-2l130 160l130 -160h-2z
" />
    <glyph glyph-name="odieresis" unicode="&#xf6;" horiz-adv-x="511" 
d="M386 600c0 -25 -21 -46 -46 -46s-46 21 -46 46s21 46 46 46s46 -21 46 -46zM219 600c0 -25 -21 -46 -46 -46s-46 21 -46 46s21 46 46 46s46 -21 46 -46zM492 245c0 -136 -108 -250 -234 -250c-104 0 -239 78 -239 250c0 122 96 238 241 238c106 0 232 -79 232 -238z
M399 246c0 101 -34 229 -146 229c-90 0 -141 -115 -141 -236c0 -132 40 -236 147 -236c105 0 140 139 140 243z" />
    <glyph glyph-name="otilde" unicode="&#xf5;" horiz-adv-x="511" 
d="M492 245c0 -136 -108 -250 -234 -250c-104 0 -239 78 -239 250c0 122 96 238 241 238c106 0 232 -79 232 -238zM399 246c0 101 -34 229 -146 229c-90 0 -141 -115 -141 -236c0 -132 40 -236 147 -236c105 0 140 139 140 243zM360 555h-225l-43 -40h-2l50 105h225l44 43h2
z" />
    <glyph glyph-name="uacute" unicode="&#xfa;" horiz-adv-x="523" 
d="M390 700l-168 -185h-2l70 185h100zM440 473v-410l62 -33v-2l-143 -33h-2v433c0 30 -17 40 -52 43v2h135zM75 138v290c0 30 -23 40 -62 43v2h145v-295c0 -77 27 -119 96 -119c41 0 70 19 103 45c-31 -46 -92 -109 -162 -109c-77 0 -120 53 -120 143z" />
    <glyph glyph-name="ugrave" unicode="&#xf9;" horiz-adv-x="523" 
d="M283 515l-168 185h100l70 -185h-2zM440 473v-410l62 -33v-2l-143 -33h-2v433c0 30 -17 40 -52 43v2h135zM75 138v290c0 30 -23 40 -62 43v2h145v-295c0 -77 27 -119 96 -119c41 0 70 19 103 45c-31 -46 -92 -109 -162 -109c-77 0 -120 53 -120 143z" />
    <glyph glyph-name="ucircumflex" unicode="&#xfb;" horiz-adv-x="523" 
d="M255 605l-128 -65h-2l130 160l130 -160h-2zM440 473v-410l62 -33v-2l-143 -33h-2v433c0 30 -17 40 -52 43v2h135zM75 138v290c0 30 -23 40 -62 43v2h145v-295c0 -77 27 -119 96 -119c41 0 70 19 103 45c-31 -46 -92 -109 -162 -109c-77 0 -120 53 -120 143z" />
    <glyph glyph-name="udieresis" unicode="&#xfc;" horiz-adv-x="523" 
d="M379 600c0 -25 -21 -46 -46 -46s-46 21 -46 46s21 46 46 46s46 -21 46 -46zM212 600c0 -25 -21 -46 -46 -46s-46 21 -46 46s21 46 46 46s46 -21 46 -46zM440 473v-410l62 -33v-2l-143 -33h-2v433c0 30 -17 40 -52 43v2h135zM75 138v290c0 30 -23 40 -62 43v2h145v-295
c0 -77 27 -119 96 -119c41 0 70 19 103 45c-31 -46 -92 -109 -162 -109c-77 0 -120 53 -120 143z" />
    <glyph glyph-name="dagger" unicode="&#x2020;" horiz-adv-x="432" 
d="M211 512h-186v11h186v200h12v-200h184v-11h-184v-512h-12v512z" />
    <glyph glyph-name="degree" unicode="&#xb0;" horiz-adv-x="408" 
d="M345 584c0 -77 -62 -141 -142 -141c-79 0 -140 62 -140 141c0 80 63 141 141 141s141 -63 141 -141zM337 584c0 74 -59 133 -133 133s-133 -57 -133 -133c0 -75 57 -133 132 -133c76 0 134 60 134 133z" />
    <glyph glyph-name="sterling" unicode="&#xa3;" horiz-adv-x="680" 
d="M115 -75c-43 -12 -82 -29 -59 -64c15 15 34 37 59 64zM132 -70c-67 -65 -72 -92 -115 -92c-20 0 -43 9 -43 29c0 43 86 43 153 71c22 41 57 117 78 188h-92l8 29h93c11 33 63 176 123 334c46 122 137 240 250 240c48 0 115 -9 115 -59c0 -20 -15 -40 -40 -40
s-40 15 -43 37c16 17 9 55 -33 55c-65 0 -108 -104 -128 -152c-64 -153 -146 -380 -159 -415h134l-10 -32h-136c-37 -113 -87 -148 -145 -181v-2c270 60 240 -87 336 -87c44 0 81 27 86 57s-30 45 -47 18c-8 5 -25 17 -25 39c0 24 19 44 45 44c31 0 47 -24 47 -49
c0 -80 -66 -144 -170 -144c-114 0 -162 142 -282 112z" />
    <glyph glyph-name="bullet" unicode="&#x2022;" horiz-adv-x="556" 
d="M453 262c0 -96 -79 -174 -175 -174s-174 78 -174 174s78 174 174 174c98 0 175 -78 175 -174z" />
    <glyph glyph-name="paragraph" unicode="&#xb6;" horiz-adv-x="660" 
d="M155 720v-720h-117v2c70 13 105 13 105 213v290c0 200 -35 200 -105 213v2h117zM357 0h-117v720h131c119 0 269 -27 269 -175c0 -127 -125 -177 -270 -177h-118v-153c0 -200 35 -200 105 -213v-2zM252 376h118c135 0 260 47 260 169c0 143 -150 167 -259 167h-119v-336z
" />
    <glyph glyph-name="germandbls" unicode="&#xdf;" horiz-adv-x="536" 
d="M13 429l73 52c0 48 2 87 14 116c32 78 114 131 197 131c120 0 143 -77 143 -120c0 -119 -104 -112 -104 -204c0 -40 24 -64 46 -83c28 -23 46 -34 75 -57c45 -35 70 -63 70 -126c0 -81 -65 -141 -168 -141c-20 0 -74 4 -110 24v118h2c22 -64 64 -135 132 -135
c50 0 86 41 86 93c0 35 -21 63 -42 80c-31 25 -63 45 -96 73c-35 29 -68 57 -68 102c0 40 19 52 47 78c44 41 78 65 78 155c0 78 -38 135 -110 135c-18 0 -96 -16 -105 -141c-4 -54 -5 -65 -5 -106v-428c0 -30 20 -40 57 -43v-2h-197v3c37 3 57 12 57 42v384h-72z" />
    <glyph glyph-name="registered" unicode="&#xae;" horiz-adv-x="514" 
d="M470 594c0 -117 -95 -212 -213 -212c-117 0 -213 95 -213 212c0 118 96 212 213 212c118 0 213 -94 213 -212zM462 594c0 114 -91 204 -205 204c-113 0 -205 -90 -205 -204c0 -113 92 -204 205 -204c69 0 130 34 167 86h-84c-7 10 -5 7 -19 29c-16 24 -24 40 -45 64
c-8 9 -20 20 -29 22c-8 2 -11 1 -17 1v-67c0 -14 0 -26 4 -33c4 -6 15 -12 33 -12v-4h-117v4c10 0 25 4 31 10c5 6 7 25 7 39v138c0 15 -1 34 -7 40c-7 6 -17 9 -29 11v2c11 0 73 2 98 2c32 0 55 -2 75 -11c22 -10 35 -31 35 -57c0 -32 -25 -53 -76 -60v-1
c27 -6 32 -13 40 -23c13 -16 32 -42 43 -58c18 -21 35 -30 60 -32c22 32 35 71 35 114zM314 656c0 33 -14 59 -65 59h-19v-115c18 0 32 0 46 4c29 10 38 29 38 52z" />
    <glyph glyph-name="copyright" unicode="&#xa9;" horiz-adv-x="1000" 
d="M878 230c0 -211 -171 -383 -382 -383s-383 172 -383 383s172 383 383 383s382 -172 382 -383zM870 230c0 207 -167 375 -374 375s-375 -168 -375 -375s168 -375 375 -375s374 168 374 375zM700 143c-23 -79 -101 -148 -200 -148c-129 0 -221 110 -221 247
c0 127 95 241 226 241c88 0 178 -43 178 -119c0 -28 -24 -52 -52 -52c-23 0 -43 15 -48 35c26 53 1 128 -76 128c-84 0 -143 -88 -143 -207c0 -131 64 -210 170 -210c50 0 125 17 165 87z" />
    <glyph glyph-name="trademark" unicode="&#x2122;" horiz-adv-x="647" 
d="M281 653l-3 -1c-8 16 -23 43 -30 50c-9 8 -20 11 -37 11h-33c0 -23 -1 -75 -1 -101v-83c0 -12 1 -27 4 -32c6 -9 25 -13 35 -13v-2h-121v2c12 0 24 4 34 15c4 6 4 22 4 31c0 13 1 38 1 80c0 26 -1 76 -1 103h-33c-17 0 -27 -4 -36 -13c-8 -6 -26 -32 -34 -48l-3 1l13 72
c10 -2 17 -7 34 -7h165c14 0 23 3 33 7zM618 482h-125v2c35 3 44 18 44 44v169c-30 -67 -43 -97 -72 -161c-5 -9 -17 -39 -23 -54h-2c-43 98 -81 178 -95 208v-145c1 -41 1 -57 42 -61v-2h-92v2c31 5 43 24 43 64v139c0 25 -25 30 -36 32v1h75l83 -180c38 82 67 151 79 180
h77v-2c-19 -2 -28 -7 -32 -20c-3 -10 -3 -23 -4 -41c-1 -20 -1 -41 -1 -60c0 -23 0 -48 1 -73c1 -22 3 -38 38 -39v-3z" />
    <glyph glyph-name="acute" unicode="&#xb4;" horiz-adv-x="500" 
d="M375 700l-168 -185h-2l70 185h100z" />
    <glyph glyph-name="dieresis" unicode="&#xa8;" horiz-adv-x="500" 
d="M380 600c0 -25 -21 -46 -46 -46s-46 21 -46 46s21 46 46 46s46 -21 46 -46zM213 600c0 -25 -21 -46 -46 -46s-46 21 -46 46s21 46 46 46s46 -21 46 -46z" />
    <glyph glyph-name="notequal" unicode="&#x2260;" horiz-adv-x="539" 
d="M280 726c50 0 105 -16 132 -51c36 31 87 51 150 51c54 0 94 -26 94 -66c0 -25 -15 -45 -45 -45c-20 0 -38 12 -45 32c20 33 0 68 -45 68c-30 0 -80 -15 -83 -90c-2 -50 -3 -90 -3 -152h118l-8 -36h-111v-392c0 -30 35 -40 87 -43v-2h-237v3c42 3 67 12 67 42v392h-178
v-392c0 -30 25 -40 67 -43v-2h-237v3c52 3 87 12 87 42v392h-67l6 36h62c0 56 2 116 16 145c30 61 98 108 173 108zM352 473l-1 124c0 75 -41 118 -86 118c-35 0 -85 -15 -88 -90c-2 -50 -3 -90 -3 -152h178z" />
    <glyph glyph-name="AE" unicode="&#xc6;" horiz-adv-x="1016" 
d="M135 175l325 507c-15 25 -41 30 -72 36v2h552l68 -166l-5 -1c-140 162 -215 157 -330 157h-80v-338c207 2 225 78 253 152h2v-315h-2c-33 76 -46 156 -253 157v-356h128c142 0 242 20 315 182l5 -1l-51 -191h-612v2c70 13 105 13 105 213v61h-271l-65 -101
c-77 -125 -57 -160 15 -173v-2h-217v2c70 18 110 48 190 173zM483 700l-266 -416h266v416z" />
    <glyph glyph-name="Oslash" unicode="&#xd8;" 
d="M680 737l-51 -71c96 -68 150 -181 150 -301c0 -213 -172 -372 -377 -372c-78 0 -152 22 -212 62l-65 -90l-8 5l65 91c-92 64 -153 171 -153 300c0 230 177 369 386 369c80 0 150 -22 206 -59l51 71zM153 358c0 -96 21 -185 63 -251l369 513c-42 61 -102 102 -182 102
c-176 0 -250 -182 -250 -364zM655 364c0 88 -21 180 -65 248l-369 -513c42 -60 103 -98 185 -98c169 0 249 186 249 363z" />
    <glyph glyph-name="infinity" unicode="&#x221e;" horiz-adv-x="793" 
d="M548 471l-8 -34h-111v-392c0 -30 35 -40 87 -43v-2h-237v3c42 3 67 12 67 42v392h-178v-392c0 -30 25 -40 67 -43v-2h-237v3c52 3 87 12 87 42v392h-67l6 36h62c0 56 2 116 16 145c30 61 98 108 173 108c50 0 105 -16 132 -51c36 31 93 51 153 51c90 0 155 -46 155 -91
c0 -30 -20 -50 -50 -50c-25 0 -43 17 -50 37c15 48 -15 93 -80 93c-50 0 -99 -40 -102 -115c-2 -50 -3 -65 -3 -127h278v-428c0 -30 25 -40 67 -43v-2h-217v3c42 3 67 12 67 42v383c0 30 -30 40 -77 43zM174 473h178v127c0 75 -27 115 -87 115c-35 0 -85 -15 -88 -90
c-2 -50 -3 -90 -3 -152z" />
    <glyph glyph-name="plusminus" unicode="&#xb1;" horiz-adv-x="792" 
d="M530 726c50 0 91 -15 139 -57h2l31 54h2l1 -678c0 -30 30 -40 77 -43v-2h-232v3c45 3 72 12 72 42v555c0 75 -42 118 -92 118s-94 -43 -97 -118c-2 -50 -3 -65 -3 -127h118l-8 -36h-111v-392c0 -30 35 -40 87 -43v-2h-237v3c42 3 67 12 67 42v392h-178v-392
c0 -30 25 -40 67 -43v-2h-237v3c52 3 87 12 87 42v392h-67l6 36h62c0 56 2 116 16 145c30 61 98 108 173 108c50 0 105 -16 132 -51c36 31 73 51 123 51zM352 473l-1 124c0 75 -41 118 -86 118c-35 0 -85 -15 -88 -90c-2 -50 -3 -90 -3 -152h178z" />
    <glyph glyph-name="partialdiff" unicode="&#x2202;" horiz-adv-x="717" 
d="M265 475c0 0 -5 1 -11 1c-79 0 -149 -89 -149 -208c0 -131 64 -210 170 -210c50 0 125 17 165 87l1 -2c-23 -79 -101 -148 -200 -148c-129 0 -221 110 -221 247c0 119 83 240 241 240c-11 22 -24 55 -24 94c0 82 62 153 167 153c94 0 164 -48 164 -169
c0 -44 -7 -81 -8 -87h181l-26 -51h-157v-288c0 -68 32 -97 79 -97c25 0 58 13 85 51h2c-15 -41 -57 -92 -141 -92c-55 0 -109 44 -109 87v339h-59v2c102 36 131 112 131 164c0 67 -37 133 -144 133c-113 0 -157 -84 -157 -144c0 -45 13 -68 25 -94c74 -1 112 -28 112 -56
c0 -21 -17 -43 -39 -43c-18 0 -33 11 -48 36s-30 55 -30 55zM300 430c4 14 -2 33 -23 42c0 0 8 -17 23 -42z" />
    <glyph glyph-name="summation" unicode="&#x2211;" horiz-adv-x="692" 
d="M369 146c0 -104 -89 -150 -187 -150c-58 0 -111 13 -155 33v132h2c22 -64 59 -157 153 -157c67 0 108 33 108 112c0 47 -31 76 -76 85c-36 7 -70 15 -97 24c-50 17 -85 63 -85 122c0 82 74 136 161 136c16 0 30 -1 44 -3c-11 22 -24 58 -24 96c0 82 62 153 167 153
c94 0 164 -48 164 -169c0 -44 -7 -81 -8 -87h181l-26 -51h-157v-288c0 -68 32 -97 79 -97c25 0 58 13 85 51h2c-15 -41 -57 -92 -141 -92c-55 0 -109 44 -109 87v339h-59v2c102 36 131 112 131 164c0 67 -37 133 -144 133c-113 0 -157 -84 -157 -144c0 -44 13 -72 24 -98
c31 -4 58 -12 83 -22l12 -124h-2c-68 97 -72 142 -153 142c-48 0 -94 -29 -94 -93c0 -55 35 -73 77 -83c29 -7 68 -15 93 -21c60 -14 108 -65 108 -132z" />
    <glyph glyph-name="ae" unicode="&#xe6;" horiz-adv-x="687" 
d="M355 432c35 33 84 51 134 51c105 0 186 -53 194 -165l-321 2c-2 -15 -2 -28 -2 -42c0 -128 73 -213 173 -213c50 0 100 10 150 62l2 -2c-27 -50 -77 -128 -182 -128c-145 0 -225 108 -225 255v28c-54 -30 -160 -71 -160 -151c0 -39 27 -69 65 -69c42 0 77 25 123 57
c-46 -53 -91 -118 -174 -118c-42 0 -93 26 -93 95c0 37 33 72 78 101c87 57 161 92 161 95v109c0 11 -28 46 -78 46c-75 0 -105 -65 -83 -105c-5 -20 -25 -35 -48 -35c-21 0 -39 18 -39 38c0 33 37 52 59 65c69 41 149 75 183 75c35 0 73 -23 83 -51zM363 327l155 3
c55 2 65 20 65 50c0 50 -30 95 -90 95s-118 -56 -130 -148z" />
    <glyph glyph-name="oslash" unicode="&#xf8;" horiz-adv-x="511" 
d="M492 245c0 -136 -108 -250 -234 -250c-46 0 -98 15 -142 47l-66 -92l-8 5l67 92c-52 41 -90 106 -90 198c0 122 96 238 241 238c44 0 93 -15 134 -43l58 80l8 -5l-58 -80c52 -39 90 -103 90 -190zM399 246c0 48 -8 103 -28 146l-229 -315c23 -46 61 -74 117 -74
c105 0 140 139 140 243zM112 239c0 -59 7 -111 25 -152l229 315c-23 42 -59 73 -113 73c-90 0 -141 -115 -141 -236z" />
    <glyph glyph-name="questiondown" unicode="&#xbf;" horiz-adv-x="450" 
d="M191 673c0 35 24 57 59 57s60 -24 60 -59s-25 -61 -60 -61s-59 28 -59 63zM263 563h-2c39 -235 -211 -255 -211 -415c0 -100 100 -150 207 -150c93 0 178 60 178 145c0 28 -24 52 -52 52c-23 0 -43 -15 -48 -35c35 -62 25 -154 -85 -154c-56 0 -100 42 -100 102
c0 140 250 220 113 455z" />
    <glyph glyph-name="exclamdown" unicode="&#xa1;" horiz-adv-x="300" 
d="M86 671c0 35 24 57 59 57s60 -24 60 -59s-25 -61 -60 -61s-59 28 -59 63zM70 16l74 520h2l74 -520s-25 -8 -75 -8s-75 8 -75 8z" />
    <glyph glyph-name="logicalnot" unicode="&#xac;" horiz-adv-x="700" 
d="M570 55h-12v235h-435v10h447v-245z" />
    <glyph glyph-name="florin" unicode="&#x192;" horiz-adv-x="538" 
d="M-40 -140c-20 -30 -5 -54 20 -54c70 0 106 114 134 245c28 132 56 258 68 330h-97l9 32h96c29 154 107 265 234 265c71 0 113 -24 113 -66c0 -20 -10 -38 -30 -38c-18 0 -24 3 -35 7c13 44 3 88 -52 89c-95 2 -136 -193 -147 -257h140l-11 -32h-136
c-37 -155 -44 -225 -87 -366c-28 -93 -93 -217 -205 -217c-39 0 -82 19 -82 58c0 17 15 31 32 31c16 0 29 -7 36 -27z" />
    <glyph glyph-name="guillemotleft" unicode="&#xab;" horiz-adv-x="422" 
d="M162 256l70 -163v-2l-185 165l185 155v-2zM307 256l70 -163v-2l-185 165l185 155v-2z" />
    <glyph glyph-name="guillemotright" unicode="&#xbb;" horiz-adv-x="425" 
d="M45 93l70 163l-70 153v2l185 -155l-185 -165v2zM190 93l70 163l-70 153v2l185 -155l-185 -165v2z" />
    <glyph glyph-name="ellipsis" unicode="&#x2026;" horiz-adv-x="755" 
d="M665 55c0 -33 -25 -58 -58 -58s-58 25 -58 58s25 58 58 58s58 -25 58 -58zM435 55c0 -33 -25 -58 -58 -58s-58 25 -58 58s25 58 58 58s58 -25 58 -58zM205 55c0 -33 -25 -58 -58 -58s-58 25 -58 58s25 58 58 58s58 -25 58 -58z" />
    <glyph glyph-name="uni00A0" unicode="&#xa0;" horiz-adv-x="210" 
 />
    <glyph glyph-name="Agrave" unicode="&#xc0;" horiz-adv-x="704" 
d="M441 284l-141 351l-141 -351h282zM105 175l190 470c-8 20 -20 45 -53 35v2l138 52h2l228 -559c60 -145 65 -155 130 -173v-2h-295v2c55 13 95 28 40 173l-41 101h-288l-41 -101c-55 -145 -8 -160 65 -173v-2h-215v2c70 18 81 28 140 173zM415 760l-228 185h130l100 -185
h-2z" />
    <glyph glyph-name="Atilde" unicode="&#xc3;" horiz-adv-x="704" 
d="M441 284l-141 351l-141 -351h282zM105 175l190 470c-8 20 -20 45 -53 35v2l138 52h2l228 -559c60 -145 65 -155 130 -173v-2h-295v2c55 13 95 28 40 173l-41 101h-288l-41 -101c-55 -145 -8 -160 65 -173v-2h-215v2c70 18 81 28 140 173zM480 790h-225l-43 -40h-2l50 105
h225l44 43h2z" />
    <glyph glyph-name="Otilde" unicode="&#xd5;" 
d="M510 790h-225l-43 -40h-2l50 105h225l44 43h2zM779 365c0 -213 -172 -372 -377 -372c-203 0 -373 153 -373 368c0 230 177 369 386 369c227 0 364 -173 364 -365zM655 364c0 172 -80 358 -252 358c-176 0 -250 -182 -250 -364c0 -191 82 -357 253 -357
c169 0 249 186 249 363z" />
    <glyph glyph-name="OE" unicode="&#x152;" horiz-adv-x="980" 
d="M541 710c136 -46 219 -165 235 -300c48 29 61 71 77 114h2v-315h-2c-19 43 -31 88 -76 118c-15 -154 -121 -274 -261 -317h122c142 0 242 20 315 182l5 -1l-52 -191h-429c-25 -5 -50 -7 -75 -7c-203 0 -373 153 -373 368c0 230 177 369 386 369c32 0 62 -4 91 -10h352
l67 -166l-5 -1c-140 162 -215 157 -330 157h-49zM153 358c0 -183 75 -343 232 -356v719c-163 -12 -232 -188 -232 -363zM495 21c108 52 159 199 160 341c-17 1 -35 2 -55 2h-105v-343zM495 374h105c20 0 38 1 55 3c-3 134 -55 273 -160 324v-327z" />
    <glyph glyph-name="oe" unicode="&#x153;" horiz-adv-x="792" 
d="M785 318l-311 2c-2 -15 -2 -28 -2 -42c0 -128 73 -213 163 -213c50 0 100 10 150 62l2 -2c-27 -50 -77 -128 -182 -128c-69 0 -136 42 -172 97c-40 -57 -114 -99 -175 -99c-104 0 -239 78 -239 250c0 122 96 238 241 238c53 0 130 -33 173 -89c35 49 98 89 158 89
c105 0 186 -53 194 -165zM259 3c89 0 125 132 129 226v23v15c-5 90 -41 208 -135 208c-90 0 -141 -115 -141 -236c0 -132 40 -236 147 -236zM475 327l155 3c55 2 65 20 65 50c0 50 -30 95 -90 95s-118 -56 -130 -148z" />
    <glyph glyph-name="endash" unicode="&#x2013;" horiz-adv-x="460" 
d="M421 257h-382v11h382v-11z" />
    <glyph glyph-name="emdash" unicode="&#x2014;" horiz-adv-x="890" 
d="M798 257h-706v11h706v-11z" />
    <glyph glyph-name="quotedblleft" unicode="&#x201c;" horiz-adv-x="363" 
d="M38 631c0 70 45 120 88 152l2 -7c-40 -35 -75 -75 -75 -125c0 -35 15 -60 40 -60s35 25 23 45c0 0 12 7 27 7c25 0 50 -17 50 -52c0 -37 -32 -60 -65 -60c-55 0 -90 45 -90 100zM208 631c0 70 45 120 88 152l2 -7c-40 -35 -75 -75 -75 -125c0 -35 15 -60 40 -60
s35 25 23 45c0 0 12 7 27 7c25 0 50 -17 50 -52c0 -37 -32 -60 -65 -60c-55 0 -90 45 -90 100z" />
    <glyph glyph-name="quotedblright" unicode="&#x201d;" horiz-adv-x="363" 
d="M155 625c0 -70 -45 -120 -88 -152l-2 7c40 35 75 75 75 125c0 35 -15 60 -40 60s-35 -25 -23 -45c0 0 -12 -7 -27 -7c-25 0 -50 17 -50 52c0 37 32 60 65 60c55 0 90 -45 90 -100zM325 625c0 -70 -45 -120 -88 -152l-2 7c40 35 75 75 75 125c0 35 -15 60 -40 60
s-35 -25 -23 -45c0 0 -12 -7 -27 -7c-25 0 -50 17 -50 52c0 37 32 60 65 60c55 0 90 -45 90 -100z" />
    <glyph glyph-name="quoteleft" unicode="&#x2018;" horiz-adv-x="193" 
d="M38 631c0 70 45 120 88 152l2 -7c-40 -35 -75 -75 -75 -125c0 -35 15 -60 40 -60s35 25 23 45c0 0 12 7 27 7c25 0 50 -17 50 -52c0 -37 -32 -60 -65 -60c-55 0 -90 45 -90 100z" />
    <glyph glyph-name="quoteright" unicode="&#x2019;" horiz-adv-x="193" 
d="M155 625c0 -70 -45 -120 -88 -152l-2 7c40 35 75 75 75 125c0 35 -15 60 -40 60s-35 -25 -23 -45c0 0 -12 -7 -27 -7c-25 0 -50 17 -50 52c0 37 32 60 65 60c55 0 90 -45 90 -100z" />
    <glyph glyph-name="lozenge" unicode="&#x25ca;" horiz-adv-x="556" 
d="M477 262l-199 -205l-198 205l198 204z" />
    <glyph glyph-name="ydieresis" unicode="&#xff;" horiz-adv-x="416" 
d="M357 600c0 -25 -21 -46 -46 -46s-46 21 -46 46s21 46 46 46s46 -21 46 -46zM199 600c0 -25 -21 -46 -46 -46s-46 21 -46 46s21 46 46 46s46 -21 46 -46zM173 -188c-13 -44 -38 -57 -73 -57c-40 0 -65 24 -65 58c0 30 20 45 40 45s35 -13 40 -38c-20 -20 -5 -45 12 -45
c13 0 28 5 38 37l47 151s-144 398 -162 442c-10 25 -31 62 -85 65v3h219v-2c-54 -3 -57 -36 -45 -66c16 -40 112 -315 112 -315h2s82 273 99 315c10 25 13 63 -61 66v2h150v-3c-54 -3 -71 -40 -81 -65c-18 -44 -149 -464 -187 -593z" />
    <glyph glyph-name="Ydieresis" unicode="&#x178;" horiz-adv-x="649" 
d="M490 830c0 -25 -21 -46 -46 -46s-46 21 -46 46s21 46 46 46s46 -21 46 -46zM313 830c0 -25 -21 -46 -46 -46s-46 21 -46 46s21 46 46 46s46 -21 46 -46zM377 346v-131c0 -200 30 -200 95 -213v-2h-300v2c65 13 95 13 95 213v105l-157 255c-56 90 -70 125 -135 143v2h305
v-2c-70 -13 -100 -53 -45 -143l137 -222l143 222c60 90 32 130 -65 143v2h235v-2c-60 -18 -102 -53 -160 -143z" />
    <glyph glyph-name="Euro" unicode="&#x20ac;" horiz-adv-x="555" 
d="M375 293h-320v10h45c15 147 110 233 249 233c71 0 121 -23 161 -56v-163h-2c-38 160 -88 211 -152 211c-96 0 -144 -98 -152 -225h171v-10zM55 237h320v-10h-171c8 -127 56 -225 152 -225c64 0 114 51 152 211h2v-163c-40 -33 -90 -56 -161 -56c-139 0 -234 86 -249 233
h-45v10z" />
    <glyph glyph-name="guilsinglleft" unicode="&#x2039;" horiz-adv-x="284" 
d="M162 256l70 -163v-2l-185 165l185 155v-2z" />
    <glyph glyph-name="guilsinglright" unicode="&#x203a;" horiz-adv-x="284" 
d="M53 93l70 163l-70 153v2l185 -155l-185 -165v2z" />
    <glyph glyph-name="fi" unicode="&#xfb01;" horiz-adv-x="520" 
d="M287 726c90 0 155 -46 155 -91c0 -30 -20 -50 -50 -50c-25 0 -43 17 -50 37c15 48 -15 93 -80 93c-50 0 -99 -40 -102 -115c-2 -50 -3 -65 -3 -127h278v-428c0 -30 25 -40 67 -43v-2h-217v3c42 3 67 12 67 42v383c0 30 -30 40 -77 43l-8 -34h-111v-392
c0 -30 35 -40 87 -43v-2h-237v3c42 3 67 12 66 44v392h-67l6 36h62c0 56 2 116 16 145c30 61 101 106 198 106z" />
    <glyph glyph-name="fl" unicode="&#xfb02;" horiz-adv-x="520" 
d="M349 45v555c0 75 -42 118 -92 118s-94 -43 -97 -118c-2 -50 -3 -65 -3 -127h118l-8 -36h-111v-392c0 -30 35 -40 87 -43v-2h-237v3c42 3 67 12 66 44v392h-67l6 36h62c0 56 2 116 16 145c30 61 91 106 168 106c50 0 91 -15 139 -57h2l31 54h2l1 -678c0 -30 30 -40 77 -43
v-2h-232v3c45 3 72 12 72 42z" />
    <glyph glyph-name="daggerdbl" unicode="&#x2021;" horiz-adv-x="432" 
d="M211 200h-186v11h186v301h-186v11h186v200h12v-200h184v-11h-184v-301h184v-11h-184v-200h-12v200z" />
    <glyph glyph-name="periodcentered" unicode="&#xb7;" horiz-adv-x="263" 
d="M192 258c0 -35 -23 -57 -58 -57s-60 24 -60 59s25 61 60 61s58 -28 58 -63z" />
    <glyph glyph-name="quotesinglbase" unicode="&#x201a;" horiz-adv-x="125" 
d="M155 10c0 -70 -45 -120 -88 -152l-2 7c40 35 75 75 75 125c0 35 -15 60 -40 60s-35 -25 -23 -45c0 0 -12 -7 -27 -7c-25 0 -50 17 -50 52c0 37 32 60 65 60c55 0 90 -45 90 -100z" />
    <glyph glyph-name="quotedblbase" unicode="&#x201e;" horiz-adv-x="295" 
d="M155 10c0 -70 -45 -120 -88 -152l-2 7c40 35 75 75 75 125c0 35 -15 60 -40 60s-35 -25 -23 -45c0 0 -12 -7 -27 -7c-25 0 -50 17 -50 52c0 37 32 60 65 60c55 0 90 -45 90 -100zM325 10c0 -70 -45 -120 -88 -152l-2 7c40 35 75 75 75 125c0 35 -15 60 -40 60
s-35 -25 -23 -45c0 0 -12 -7 -27 -7c-25 0 -50 17 -50 52c0 37 32 60 65 60c55 0 90 -45 90 -100z" />
    <glyph glyph-name="perthousand" unicode="&#x2030;" horiz-adv-x="925" 
d="M308 526c0 -79 -60 -136 -127 -136c-55 0 -131 41 -131 138c0 69 56 130 132 130c63 0 126 -48 126 -132zM533 634l-425 -617l-7 5l425 618zM587 132c0 -79 -60 -136 -127 -136c-55 0 -131 41 -131 138c0 69 56 130 132 130c63 0 126 -48 126 -132zM579 132
c0 80 -59 124 -118 124c-72 0 -124 -57 -124 -122c0 -93 72 -130 123 -130c63 0 119 53 119 128zM300 526c0 80 -59 124 -118 124c-72 0 -124 -57 -124 -122c0 -93 72 -130 123 -130c63 0 119 53 119 128zM890 132c0 -79 -60 -136 -127 -136c-55 0 -131 41 -131 138
c0 69 56 130 132 130c63 0 126 -48 126 -132zM882 132c0 80 -59 124 -118 124c-72 0 -124 -57 -124 -122c0 -93 72 -130 123 -130c63 0 119 53 119 128z" />
    <glyph glyph-name="Acircumflex" unicode="&#xc2;" horiz-adv-x="704" 
d="M441 284l-141 351l-141 -351h282zM105 175l190 470c-8 20 -20 45 -53 35v2l138 52h2l228 -559c60 -145 65 -155 130 -173v-2h-295v2c55 13 95 28 40 173l-41 101h-288l-41 -101c-55 -145 -8 -160 65 -173v-2h-215v2c70 18 81 28 140 173zM355 830l-128 -65h-2l130 160
l130 -160h-2z" />
    <glyph glyph-name="Ecircumflex" unicode="&#xca;" horiz-adv-x="711" 
d="M380 840l-128 -65h-2l130 160l130 -160h-2zM703 191l-53 -191h-610v2c70 13 105 13 105 213v290c0 200 -30 200 -95 213v2h550l70 -166l-5 -1c-140 162 -215 157 -330 157h-80v-338c207 2 225 78 253 152h2v-315h-2c-33 76 -46 156 -253 157v-356h128
c142 0 242 20 315 182z" />
    <glyph glyph-name="Aacute" unicode="&#xc1;" horiz-adv-x="704" 
d="M441 284l-141 351l-141 -351h282zM105 175l190 470c-8 20 -20 45 -53 35v2l138 52h2l228 -559c60 -145 65 -155 130 -173v-2h-295v2c55 13 95 28 40 173l-41 101h-288l-41 -101c-55 -145 -8 -160 65 -173v-2h-215v2c70 18 81 28 140 173zM515 935l-218 -175h-2l95 175
h125z" />
    <glyph glyph-name="Edieresis" unicode="&#xcb;" horiz-adv-x="711" 
d="M520 830c0 -25 -21 -46 -46 -46s-46 21 -46 46s21 46 46 46s46 -21 46 -46zM343 830c0 -25 -21 -46 -46 -46s-46 21 -46 46s21 46 46 46s46 -21 46 -46zM703 191l-53 -191h-610v2c70 13 105 13 105 213v290c0 200 -30 200 -95 213v2h550l70 -166l-5 -1
c-140 162 -215 157 -330 157h-80v-338c207 2 225 78 253 152h2v-315h-2c-33 76 -46 156 -253 157v-356h128c142 0 242 20 315 182z" />
    <glyph glyph-name="Egrave" unicode="&#xc8;" horiz-adv-x="711" 
d="M433 760l-228 185h130l100 -185h-2zM703 191l-53 -191h-610v2c70 13 105 13 105 213v290c0 200 -30 200 -95 213v2h550l70 -166l-5 -1c-140 162 -215 157 -330 157h-80v-338c207 2 225 78 253 152h2v-315h-2c-33 76 -46 156 -253 157v-356h128c142 0 242 20 315 182z" />
    <glyph glyph-name="Iacute" unicode="&#xcd;" horiz-adv-x="399" 
d="M365 935l-218 -175h-2l95 175h125zM350 0h-300v2c65 13 95 13 95 213v290c0 200 -30 200 -95 213v2h300v-2c-65 -13 -95 -13 -95 -213v-290c0 -200 30 -200 95 -213v-2z" />
    <glyph glyph-name="Icircumflex" unicode="&#xce;" horiz-adv-x="399" 
d="M197 840l-128 -65h-2l130 160l130 -160h-2zM350 0h-300v2c65 13 95 13 95 213v290c0 200 -30 200 -95 213v2h300v-2c-65 -13 -95 -13 -95 -213v-290c0 -200 30 -200 95 -213v-2z" />
    <glyph glyph-name="Idieresis" unicode="&#xcf;" horiz-adv-x="399" 
d="M329 830c0 -25 -21 -46 -46 -46s-46 21 -46 46s21 46 46 46s46 -21 46 -46zM162 830c0 -25 -21 -46 -46 -46s-46 21 -46 46s21 46 46 46s46 -21 46 -46zM350 0h-300v2c65 13 95 13 95 213v290c0 200 -30 200 -95 213v2h300v-2c-65 -13 -95 -13 -95 -213v-290
c0 -200 30 -200 95 -213v-2z" />
    <glyph glyph-name="Igrave" unicode="&#xcc;" horiz-adv-x="399" 
d="M248 760l-228 185h130l100 -185h-2zM350 0h-300v2c65 13 95 13 95 213v290c0 200 -30 200 -95 213v2h300v-2c-65 -13 -95 -13 -95 -213v-290c0 -200 30 -200 95 -213v-2z" />
    <glyph glyph-name="Oacute" unicode="&#xd3;" 
d="M555 935l-218 -175h-2l95 175h125zM779 365c0 -213 -172 -372 -377 -372c-203 0 -373 153 -373 368c0 230 177 369 386 369c227 0 364 -173 364 -365zM655 364c0 172 -80 358 -252 358c-176 0 -250 -182 -250 -364c0 -191 82 -357 253 -357c169 0 249 186 249 363z" />
    <glyph glyph-name="Ocircumflex" unicode="&#xd4;" 
d="M405 840l-128 -65h-2l130 160l130 -160h-2zM779 365c0 -213 -172 -372 -377 -372c-203 0 -373 153 -373 368c0 230 177 369 386 369c227 0 364 -173 364 -365zM655 364c0 172 -80 358 -252 358c-176 0 -250 -182 -250 -364c0 -191 82 -357 253 -357
c169 0 249 186 249 363z" />
    <glyph glyph-name="Ograve" unicode="&#xd2;" 
d="M483 760l-228 185h130l100 -185h-2zM779 365c0 -213 -172 -372 -377 -372c-203 0 -373 153 -373 368c0 230 177 369 386 369c227 0 364 -173 364 -365zM655 364c0 172 -80 358 -252 358c-176 0 -250 -182 -250 -364c0 -191 82 -357 253 -357c169 0 249 186 249 363z" />
    <glyph glyph-name="Uacute" unicode="&#xda;" horiz-adv-x="834" 
d="M615 935l-218 -175h-2l95 175h125zM240 505l1 -259c3 -147 75 -234 213 -234c232 0 249 173 251 308c1 72 0 128 0 185c0 200 -48 200 -130 213v2h255v-2c-75 -13 -116 -13 -115 -213v-185c-2 -110 -3 -332 -295 -332c-287 0 -290 214 -290 264c0 43 2 190 0 253
c0 200 -30 200 -95 213v2h300v-2c-65 -13 -95 -13 -95 -213z" />
    <glyph glyph-name="Ucircumflex" unicode="&#xdb;" horiz-adv-x="834" 
d="M450 840l-128 -65h-2l130 160l130 -160h-2zM240 505l1 -259c3 -147 75 -234 213 -234c232 0 249 173 251 308c1 72 0 128 0 185c0 200 -48 200 -130 213v2h255v-2c-75 -13 -116 -13 -115 -213v-185c-2 -110 -3 -332 -295 -332c-287 0 -290 214 -290 264c0 43 2 190 0 253
c0 200 -30 200 -95 213v2h300v-2c-65 -13 -95 -13 -95 -213z" />
    <glyph glyph-name="Ugrave" unicode="&#xd9;" horiz-adv-x="834" 
d="M483 760l-228 185h130l100 -185h-2zM240 505l1 -259c3 -147 75 -234 213 -234c232 0 249 173 251 308c1 72 0 128 0 185c0 200 -48 200 -130 213v2h255v-2c-75 -13 -116 -13 -115 -213v-185c-2 -110 -3 -332 -295 -332c-287 0 -290 214 -290 264c0 43 2 190 0 253
c0 200 -30 200 -95 213v2h300v-2c-65 -13 -95 -13 -95 -213z" />
    <glyph glyph-name="dotlessi" unicode="&#x131;" horiz-adv-x="254" 
d="M85 45v355l-57 30v2l138 51h2v-438c0 -30 20 -40 57 -43v-2h-197v3c37 3 57 12 57 42z" />
    <glyph glyph-name="circumflex" unicode="&#x2c6;" horiz-adv-x="500" 
d="M250 605l-128 -65h-2l130 160l130 -160h-2z" />
    <glyph glyph-name="tilde" unicode="&#x2dc;" horiz-adv-x="500" 
d="M355 555h-225l-43 -40h-2l50 105h225l44 43h2z" />
    <glyph glyph-name="ring" unicode="&#x2da;" horiz-adv-x="500" 
d="M325 592c0 -41 -31 -72 -74 -72c-44 0 -74 30 -74 72c0 41 33 72 74 72c42 0 74 -30 74 -72zM317 592c0 38 -28 64 -66 64c-37 0 -66 -27 -66 -64c0 -38 26 -64 66 -64c39 0 66 27 66 64z" />
    <glyph glyph-name="cedilla" unicode="&#xb8;" horiz-adv-x="500" 
d="M330 -134c0 -62 -68 -90 -105 -90c-45 0 -76 13 -76 45c0 13 9 29 31 29c10 0 20 -2 29 -11c-19 -24 -9 -55 21 -55c24 0 44 16 44 61c0 40 -25 62 -73 78l69 65h2l-10 -35c63 -25 68 -71 68 -87z" />
    <glyph glyph-name="eightalt" horiz-adv-x="486" 
d="M280 392c72 55 95 108 95 179c0 80 -42 150 -130 150c-71 0 -129 -48 -128 -130c3 -216 336 -191 336 -398c0 -115 -99 -199 -219 -199c-94 0 -198 64 -198 164c0 82 84 142 154 184c-60 -67 -82 -117 -82 -179c0 -100 56 -160 134 -160c101 0 129 70 129 135
c0 202 -327 182 -327 402c0 106 100 187 199 187c124 0 200 -71 200 -156c0 -78 -68 -151 -163 -179z" />
    <glyph glyph-name="fivealt" horiz-adv-x="393" 
d="M0 -252v2c160 -10 292 90 292 225c0 100 -67 133 -117 133s-88 -21 -121 -66h-2l44 431h223c44 0 52 11 64 39l2 -1c-9 -24 -25 -72 -43 -134h-246l-24 -227s43 47 113 47c115 0 188 -90 188 -184c0 -163 -198 -288 -373 -265z" />
    <glyph glyph-name="fouralt" horiz-adv-x="551" 
d="M387 82h85c44 0 52 11 64 39l2 -1l-38 -115h-111v-233h-88v233h-318l404 478v-401zM301 82v283l-239 -283h239z" />
    <glyph glyph-name="ninealt" horiz-adv-x="512" 
d="M362 81c0 0 -42 -50 -119 -50c-135 0 -222 100 -222 213c0 127 94 239 233 239c124 0 227 -119 227 -250c0 -239 -261 -429 -448 -480l-2 3c227 100 352 250 352 475c0 150 -35 244 -135 244c-80 0 -136 -70 -136 -190c1 -119 45 -234 155 -234c53 0 95 30 95 30z" />
    <glyph glyph-name="onealt" horiz-adv-x="316" 
d="M203 428v-383c0 -30 30 -40 77 -43v-2h-237v3c47 3 77 12 77 42v383c0 30 -30 40 -77 43v2h237v-3c-47 -3 -77 -12 -77 -42z" />
    <glyph glyph-name="sevenalt" horiz-adv-x="444" 
d="M460 473l-285 -720h-75l315 635h-290c-75 0 -100 -52 -118 -83h-2l65 168h390z" />
    <glyph glyph-name="sixalt" horiz-adv-x="512" 
d="M146 400c0 0 42 50 119 50c135 0 222 -100 222 -213c0 -127 -94 -239 -233 -239c-124 0 -227 119 -227 250c0 239 261 429 448 480l2 -3c-227 -100 -352 -250 -352 -475c0 -150 35 -244 135 -244c80 0 136 70 136 190c-1 119 -45 234 -155 234c-53 0 -95 -30 -95 -30z
" />
    <glyph glyph-name="threealt" horiz-adv-x="396" 
d="M0 -252v2c150 0 287 51 287 191c0 95 -75 154 -195 163c70 54 166 121 166 219c0 54 -42 94 -105 94c-57 0 -101 -17 -130 -62l-2 1c30 63 80 127 165 127c90 0 154 -53 154 -128c0 -70 -68 -135 -150 -180c97 -20 180 -88 180 -178c0 -150 -145 -272 -370 -249z" />
    <glyph glyph-name="twoalt" horiz-adv-x="436" 
d="M142 84h200c71 0 79 22 93 51l2 -1l-50 -134h-355c101 84 242 204 242 304c0 54 -31 107 -95 107c-69 0 -123 -37 -155 -89l-1 1c28 53 111 160 209 160c66 0 117 -44 117 -116c0 -103 -122 -203 -207 -283z" />
    <glyph glyph-name="zeroalt" horiz-adv-x="533" 
d="M506 243c0 -143 -111 -248 -237 -248c-104 0 -242 75 -242 251c0 125 101 236 245 236c118 0 234 -87 234 -239zM482 243c0 140 -104 215 -210 215c-132 0 -221 -99 -221 -212c0 -164 126 -227 218 -227c114 0 213 93 213 224z" />
    </font>
</defs>
</svg>
